<svg width="706" height="826" viewBox="0 0 706 826" fill="none" xmlns="http://www.w3.org/2000/svg">
<path d="M363.5 706.329C519.198 706.329 645.416 697.957 645.416 687.628C645.416 677.3 519.198 668.928 363.5 668.928C207.802 668.928 81.584 677.3 81.584 687.628C81.584 697.957 207.802 706.329 363.5 706.329Z" fill="#F5F5F5"/>
<path d="M201.815 301.82L202.629 316.457L210.656 316.771L212.749 302.498L201.815 301.82Z" fill="#E4897B"/>
<path d="M276.26 274.942C274.05 282.773 271.622 290.306 268.917 297.889C266.196 305.601 263.089 313.13 259.612 320.438L258.158 323.28L256.529 326.171C256.369 326.435 256.311 326.584 256.078 326.947C255.846 327.311 255.657 327.625 255.424 327.955C254.971 328.629 254.485 329.274 253.97 329.888C252.829 331.211 251.515 332.326 250.073 333.192C247.321 334.783 244.241 335.496 241.16 335.257C238.71 335.04 236.305 334.382 234.036 333.308C232.075 332.417 230.195 331.31 228.423 330.004C226.751 328.818 225.148 327.511 223.625 326.088C222.151 324.723 220.739 323.272 219.394 321.744C218.022 320.225 216.721 318.626 215.497 316.953L221.313 309.816C222.622 310.692 224.12 311.749 225.53 312.658C226.94 313.566 228.438 314.409 229.892 315.235C232.539 316.764 235.335 317.934 238.223 318.72C239.257 318.957 240.319 318.996 241.364 318.836C242.164 318.704 242.469 318.406 242.571 318.192L242.789 317.779L242.949 317.415L243.051 317.184L243.269 316.688L244.316 314.442L245.348 311.997C248.038 305.306 250.51 298.021 252.865 290.719C255.221 283.417 257.591 275.967 259.873 268.698L276.26 274.942Z" fill="#E4897B"/>
<path d="M221.575 310.031L212.764 302.498L210.656 316.771C210.656 316.771 217.926 323.082 223.131 317.581L221.575 310.031Z" fill="#E4897B"/>
<path d="M283.923 261.71C287.616 272.811 268.06 312.36 268.06 312.36L243.501 302.861C243.501 302.861 252.225 275.735 259.728 262.982C267.536 249.882 279.881 249.452 283.923 261.71Z" fill="#FC7F07"/>
<path opacity="0.3" d="M283.923 261.71C287.616 272.811 268.06 312.36 268.06 312.36L243.501 302.861C243.501 302.861 252.225 275.735 259.728 262.982C267.536 249.882 279.881 249.452 283.923 261.71Z" fill="black"/>
<path d="M270.953 253.202C270.953 253.202 258.041 280.939 270.299 350.769H328.764C329.171 340.576 323.53 300.614 332.181 252.574C325.718 251.153 319.181 250.215 312.61 249.766C304.334 249.22 296.037 249.22 287.761 249.766C282.088 250.413 276.469 251.562 270.953 253.202Z" fill="#FC7F07"/>
<path opacity="0.3" d="M270.953 253.202C270.953 253.202 258.041 280.939 270.299 350.769H328.764C329.171 340.576 323.53 300.614 332.181 252.574C325.718 251.153 319.181 250.215 312.61 249.766C304.334 249.22 296.037 249.22 287.761 249.766C282.088 250.413 276.469 251.562 270.953 253.202Z" fill="black"/>
<path d="M343.842 676.725H333.155L331.134 648.625H341.806L343.842 676.725Z" fill="#E4897B"/>
<path d="M331.134 648.641L332.181 663.113H342.868L341.821 648.641H331.134Z" fill="#CE6F64"/>
<path d="M281.029 676.725H270.357L269.993 648.625H280.68L281.029 676.725Z" fill="#E4897B"/>
<path d="M269.993 648.641L270.182 663.113H280.869L280.68 648.641H269.993Z" fill="#CE6F64"/>
<path d="M270.299 350.769C270.299 350.769 262.447 464.625 260.979 502.489C259.452 541.856 266.722 659.644 266.722 659.644H284.097C284.097 659.644 290.437 550.397 293.417 511.839C296.674 469.812 308.728 350.769 308.728 350.769H270.299Z" fill="#FC7F07"/>
<path opacity="0.7" d="M270.299 350.769C270.299 350.769 262.447 464.625 260.979 502.489C259.452 541.856 266.722 659.644 266.722 659.644H284.097C284.097 659.644 290.437 550.397 293.417 511.839C296.674 469.812 308.728 350.769 308.728 350.769H270.299Z" fill="black"/>
<path d="M332.748 675.321H344.38C344.594 675.323 344.801 675.407 344.968 675.56C345.134 675.713 345.25 675.926 345.296 676.164L347.404 686.951C347.455 687.211 347.453 687.481 347.398 687.74C347.344 688 347.239 688.242 347.091 688.448C346.942 688.655 346.755 688.821 346.542 688.933C346.33 689.046 346.098 689.102 345.863 689.099C341.661 689.016 335.583 688.735 330.291 688.735C324.111 688.735 323.253 689.132 315.998 689.132C311.636 689.132 310.385 684.176 312.232 683.631C320.578 681.549 322.919 681.334 330.145 676.279C330.915 675.685 331.818 675.352 332.748 675.321Z" fill="#263238"/>
<path d="M269.935 675.321H281.567C281.78 675.32 281.987 675.404 282.151 675.558C282.316 675.712 282.428 675.926 282.469 676.164L284.592 686.951C284.642 687.211 284.64 687.481 284.586 687.74C284.531 688 284.426 688.242 284.278 688.448C284.13 688.655 283.942 688.821 283.73 688.933C283.517 689.046 283.285 689.102 283.05 689.099C278.834 689.016 272.756 688.735 267.478 688.735C261.284 688.735 255.948 689.132 248.692 689.132C244.33 689.132 243.094 684.176 244.926 683.631C253.287 681.549 260.106 681.334 267.333 676.279C268.101 675.682 269.005 675.35 269.935 675.321Z" fill="#263238"/>
<path d="M265.529 677.188C264.803 677.386 264.04 677.299 263.363 676.94C263.136 676.795 262.948 676.584 262.817 676.328C262.687 676.073 262.619 675.782 262.621 675.486C262.597 675.319 262.615 675.147 262.671 674.989C262.727 674.832 262.821 674.695 262.941 674.594C264.017 673.686 267.856 675.486 268.292 675.701C268.337 675.725 268.376 675.762 268.404 675.808C268.432 675.855 268.449 675.909 268.452 675.965C268.45 676.024 268.434 676.081 268.405 676.13C268.377 676.18 268.338 676.22 268.292 676.246C267.402 676.669 266.477 676.984 265.529 677.188ZM263.566 674.941C263.451 674.952 263.341 674.997 263.247 675.073C263.174 675.073 263.116 675.205 263.13 675.437C263.136 675.635 263.183 675.829 263.27 676.002C263.356 676.174 263.478 676.321 263.625 676.428C264.919 676.84 266.302 676.675 267.492 675.965C266.254 675.341 264.921 674.993 263.566 674.941Z" fill="#FC7F07"/>
<path d="M268.234 676.263H268.103C266.882 675.767 264.352 673.471 264.395 672.067C264.4 671.846 264.472 671.635 264.599 671.469C264.727 671.303 264.902 671.193 265.093 671.158C265.285 671.097 265.487 671.082 265.684 671.113C265.882 671.144 266.072 671.222 266.242 671.34C267.696 672.281 268.408 675.767 268.437 675.916C268.451 675.966 268.451 676.019 268.438 676.069C268.426 676.119 268.4 676.163 268.365 676.197C268.327 676.231 268.282 676.253 268.234 676.263ZM265.326 671.67H265.21C264.89 671.786 264.89 671.951 264.875 672.034C264.875 672.86 266.518 674.644 267.783 675.338C267.512 673.955 266.885 672.695 265.98 671.72C265.783 671.624 265.562 671.607 265.355 671.67H265.326Z" fill="#FC7F07"/>
<path d="M287.441 660.139H265.878L264.003 650.888L287.819 651.367L287.441 660.139Z" fill="#FC7F07"/>
<path d="M328.342 677.188C327.616 677.386 326.853 677.299 326.176 676.94C325.958 676.784 325.776 676.571 325.647 676.317C325.517 676.064 325.445 675.779 325.434 675.486C325.41 675.319 325.428 675.147 325.484 674.989C325.54 674.832 325.634 674.695 325.754 674.594C326.845 673.686 330.669 675.486 331.105 675.701C331.152 675.721 331.193 675.757 331.221 675.805C331.25 675.852 331.265 675.908 331.265 675.965C331.266 676.025 331.251 676.084 331.223 676.134C331.194 676.184 331.153 676.223 331.105 676.246C330.215 676.669 329.29 676.984 328.342 677.188ZM326.379 674.941C326.265 674.954 326.155 675 326.06 675.073C326.012 675.115 325.976 675.172 325.955 675.236C325.935 675.3 325.931 675.37 325.943 675.437C325.949 675.635 325.996 675.829 326.083 676.002C326.169 676.174 326.291 676.321 326.438 676.428C327.731 676.84 329.115 676.675 330.305 675.965C329.067 675.341 327.734 674.993 326.379 674.941Z" fill="#FC7F07"/>
<path d="M331.047 676.263H330.916C329.709 675.767 327.164 673.471 327.208 672.067C327.216 671.845 327.291 671.633 327.421 671.467C327.551 671.302 327.728 671.192 327.921 671.158C328.11 671.093 328.309 671.076 328.505 671.107C328.701 671.139 328.888 671.218 329.055 671.34C330.509 672.281 331.221 675.767 331.25 675.916C331.273 675.958 331.286 676.007 331.286 676.056C331.286 676.106 331.273 676.155 331.25 676.197C331.192 676.247 331.119 676.27 331.047 676.263ZM328.139 671.67H328.037C327.702 671.786 327.702 671.951 327.702 672.034C327.702 672.86 329.331 674.644 330.61 675.338C330.335 673.953 329.702 672.693 328.793 671.72C328.595 671.624 328.375 671.607 328.168 671.67H328.139Z" fill="#FC7F07"/>
<path d="M291.047 350.769C291.047 350.769 296.005 462.064 302.81 497.615C310.269 536.553 326.554 659.644 326.554 659.644H346.561C346.561 659.644 339.858 539.692 335.598 501.151C330.988 459.306 328.764 350.819 328.764 350.819L291.047 350.769Z" fill="#FC7F07"/>
<path opacity="0.7" d="M291.047 350.769C291.047 350.769 296.005 462.064 302.81 497.615C310.269 536.553 326.554 659.644 326.554 659.644H346.561C346.561 659.644 339.858 539.692 335.598 501.151C330.988 459.306 328.764 350.819 328.764 350.819L291.047 350.769Z" fill="black"/>
<path d="M338.491 646.213C338.514 646.209 338.536 646.2 338.556 646.186C338.576 646.172 338.593 646.154 338.607 646.132C338.62 646.111 338.63 646.086 338.635 646.06C338.64 646.034 338.641 646.008 338.637 645.982C338.477 644.825 333.577 537.181 329.753 502.555C325.609 464.972 324.315 365.257 324.227 364.415C324.217 364.359 324.189 364.31 324.149 364.277C324.109 364.243 324.059 364.228 324.009 364.233C323.985 364.235 323.961 364.243 323.94 364.256C323.918 364.269 323.899 364.286 323.884 364.308C323.869 364.33 323.858 364.355 323.852 364.382C323.846 364.409 323.845 364.437 323.849 364.464C323.937 365.307 325.303 465.021 329.389 502.604C333.213 537.296 338.113 644.891 338.273 646.048C338.284 646.102 338.312 646.149 338.353 646.18C338.394 646.211 338.443 646.223 338.491 646.213Z" fill="#FC7F07"/>
<path opacity="0.4" d="M338.491 646.213C338.514 646.209 338.536 646.2 338.556 646.186C338.576 646.172 338.593 646.154 338.607 646.132C338.62 646.111 338.63 646.086 338.635 646.06C338.64 646.034 338.641 646.008 338.637 645.982C338.477 644.825 333.577 537.181 329.753 502.555C325.609 464.972 324.315 365.257 324.227 364.415C324.217 364.359 324.189 364.31 324.149 364.277C324.109 364.243 324.059 364.228 324.009 364.233C323.985 364.235 323.961 364.243 323.94 364.256C323.918 364.269 323.899 364.286 323.884 364.308C323.869 364.33 323.858 364.355 323.852 364.382C323.846 364.409 323.845 364.437 323.849 364.464C323.937 365.307 325.303 465.021 329.389 502.604C333.213 537.296 338.113 644.891 338.273 646.048C338.284 646.102 338.312 646.149 338.353 646.18C338.394 646.211 338.443 646.223 338.491 646.213Z" fill="black"/>
<path d="M347.346 660.139H325.769L323.893 650.888L347.768 650.128L347.346 660.139Z" fill="#FC7F07"/>
<path d="M310.153 217.965C308.582 227.051 307.012 243.703 312.61 249.766C312.61 249.766 310.094 255.862 295.235 255.862C281.654 255.862 287.761 249.766 287.761 249.766C296.674 247.337 296.485 239.854 294.9 232.767L310.153 217.965Z" fill="#E4897B"/>
<path d="M303.886 224.011L294.857 232.767C295.244 234.389 295.502 236.048 295.627 237.723C298.535 240.862 303.712 232.915 304.075 228.868C304.267 227.249 304.203 225.604 303.886 224.011Z" fill="#CE6F64"/>
<path d="M282.818 190.277C277.961 193.961 277.889 211.406 285.304 213.818C292.719 216.23 292.021 183.372 282.818 190.277Z" fill="#263238"/>
<path d="M311.156 204.303C310.502 216.594 310.662 223.829 305.195 230.157C296.965 239.656 283.603 234.006 281.015 221.731C278.688 210.68 280.171 192.425 290.771 187.519C293.104 186.425 295.644 186.028 298.15 186.366C300.656 186.703 303.044 187.763 305.087 189.446C307.13 191.128 308.761 193.376 309.823 195.977C310.885 198.578 311.344 201.444 311.156 204.303Z" fill="#E4897B"/>
<path d="M314.907 188.791L304.453 194.11C308.553 202.8 299.335 217.469 308.626 215.867C312.886 215.123 326.321 200.024 314.907 188.791Z" fill="#263238"/>
<path d="M312.203 211.076C309.615 210.399 301.56 208.515 301.472 208.499C301.412 208.483 301.359 208.442 301.324 208.384C301.289 208.326 301.274 208.255 301.283 208.185C301.289 208.15 301.3 208.117 301.317 208.087C301.334 208.057 301.356 208.031 301.381 208.011C301.407 207.991 301.436 207.977 301.467 207.97C301.497 207.963 301.529 207.963 301.56 207.97C301.647 207.97 309.717 209.87 312.319 210.547C312.381 210.547 312.44 210.575 312.484 210.625C312.527 210.674 312.552 210.742 312.552 210.812C312.552 210.882 312.527 210.949 312.484 210.999C312.44 211.048 312.381 211.076 312.319 211.076H312.203Z" fill="#263238"/>
<path d="M315.998 217.849C315.279 219.149 314.341 220.275 313.238 221.163C312.135 222.05 310.889 222.681 309.571 223.02C306.038 223.912 304.468 220.261 305.616 216.594C306.663 213.29 309.746 208.862 313.206 209.622C313.959 209.806 314.66 210.2 315.245 210.769C315.83 211.337 316.282 212.062 316.559 212.879C316.836 213.695 316.929 214.577 316.832 215.445C316.734 216.312 316.447 217.139 315.998 217.849Z" fill="#E4897B"/>
<path d="M295.351 207.739C295.351 208.73 294.871 209.54 294.304 209.54C293.737 209.54 293.257 208.73 293.257 207.739C293.257 206.748 293.723 205.922 294.304 205.922C294.886 205.922 295.351 206.731 295.351 207.739Z" fill="#263238"/>
<path d="M285.377 207.739C285.377 208.73 284.911 209.54 284.33 209.54C283.748 209.54 283.297 208.73 283.297 207.739C283.297 206.748 283.763 205.922 284.33 205.922C284.897 205.922 285.377 206.731 285.377 207.739Z" fill="#263238"/>
<path d="M287.892 208.235C286.842 211.292 285.428 214.171 283.69 216.792C284.289 217.285 284.975 217.622 285.702 217.779C286.428 217.936 287.176 217.909 287.892 217.701V208.235Z" fill="#DE5753"/>
<path d="M289.2 221.979C289.166 221.977 289.132 221.967 289.101 221.95C289.07 221.933 289.043 221.91 289.02 221.881C288.997 221.851 288.979 221.817 288.968 221.78C288.956 221.744 288.951 221.704 288.953 221.665C288.953 221.627 288.96 221.589 288.973 221.554C288.987 221.519 289.006 221.487 289.031 221.461C289.055 221.434 289.084 221.414 289.116 221.401C289.148 221.388 289.181 221.382 289.215 221.385C290.312 221.465 291.409 221.251 292.419 220.76C293.43 220.269 294.324 219.516 295.031 218.56C295.072 218.497 295.132 218.454 295.199 218.439C295.266 218.423 295.336 218.437 295.395 218.477C295.442 218.532 295.468 218.606 295.468 218.684C295.468 218.761 295.442 218.835 295.395 218.89C294.652 219.926 293.703 220.747 292.626 221.284C291.549 221.821 290.375 222.059 289.2 221.979Z" fill="#263238"/>
<path d="M299.844 199.297C299.766 199.307 299.687 199.296 299.614 199.264C299.54 199.233 299.475 199.182 299.422 199.116C299.004 198.545 298.472 198.097 297.869 197.809C297.267 197.522 296.613 197.403 295.962 197.464C295.825 197.483 295.688 197.443 295.577 197.35C295.466 197.258 295.39 197.121 295.366 196.968C295.344 196.815 295.376 196.658 295.455 196.532C295.534 196.405 295.653 196.319 295.787 196.291C296.602 196.206 297.422 196.343 298.181 196.691C298.939 197.039 299.614 197.587 300.149 198.29C300.243 198.4 300.296 198.548 300.296 198.703C300.296 198.857 300.243 199.005 300.149 199.116C300.066 199.21 299.959 199.273 299.844 199.297Z" fill="#263238"/>
<path d="M319.208 282.787L302.133 282.137L302.086 283.722L319.161 284.372L319.208 282.787Z" fill="#E0E0E0"/>
<path d="M280.942 199.182C280.867 199.154 280.797 199.109 280.738 199.049C280.643 198.936 280.59 198.785 280.59 198.628C280.59 198.471 280.643 198.321 280.738 198.207C281.304 197.529 282.004 197.014 282.781 196.707C283.558 196.399 284.388 196.307 285.202 196.439C285.276 196.445 285.349 196.469 285.414 196.509C285.48 196.549 285.537 196.604 285.583 196.671C285.628 196.738 285.66 196.816 285.677 196.898C285.694 196.981 285.695 197.066 285.68 197.149C285.666 197.232 285.636 197.311 285.592 197.38C285.549 197.448 285.493 197.506 285.428 197.548C285.364 197.59 285.292 197.616 285.218 197.625C285.144 197.633 285.069 197.623 284.998 197.596C284.354 197.504 283.699 197.586 283.088 197.836C282.476 198.086 281.925 198.496 281.48 199.033C281.41 199.111 281.324 199.166 281.229 199.192C281.134 199.218 281.035 199.215 280.942 199.182Z" fill="#263238"/>
<path d="M291.803 188.791C291.803 188.791 291.483 179.209 300.004 179.705C306.62 180.085 319.022 190.988 322.904 188.791C322.904 188.791 315.634 198.537 306.067 195.399C301.076 193.924 296.279 191.702 291.803 188.791Z" fill="#263238"/>
<path d="M291.803 188.791C291.803 188.791 298.957 183.835 294.217 181.01C287.325 176.946 279.037 191.715 275.169 189.517C275.169 189.517 276.013 196.538 285.246 192.425C287.51 191.405 289.702 190.19 291.803 188.791Z" fill="#263238"/>
<path d="M295.351 216.197C291.832 216.197 288.968 212.133 288.968 207.144C288.968 202.717 291.236 200.272 295.351 200.272C299.466 200.272 301.749 202.717 301.749 207.144C301.749 212.133 298.884 216.197 295.351 216.197ZM295.351 200.801C292.661 200.801 289.433 201.907 289.433 207.144C289.433 211.836 292.094 215.652 295.351 215.652C298.608 215.652 301.269 211.836 301.269 207.144C301.269 201.907 298.07 200.801 295.351 200.801Z" fill="#263238"/>
<path d="M280.927 216.197C278.019 216.197 275.562 212.133 275.562 207.144C275.562 201.164 278.921 200.272 280.927 200.272C282.934 200.272 286.293 201.164 286.293 207.144C286.293 212.133 283.893 216.197 280.927 216.197ZM280.927 200.801C278.688 200.801 276.027 201.907 276.027 207.144C276.027 211.836 278.223 215.652 280.927 215.652C283.632 215.652 285.827 211.836 285.827 207.144C285.827 201.907 283.166 200.801 280.927 200.801Z" fill="#263238"/>
<path d="M285.624 204.22C285.582 204.221 285.542 204.209 285.506 204.185C285.47 204.162 285.441 204.129 285.42 204.088C285.402 204.058 285.39 204.025 285.385 203.99C285.38 203.954 285.382 203.918 285.39 203.884C285.398 203.849 285.413 203.817 285.433 203.789C285.454 203.762 285.479 203.74 285.507 203.725C286.166 203.276 286.92 203.04 287.688 203.04C288.456 203.04 289.21 203.276 289.869 203.725C289.923 203.76 289.964 203.816 289.983 203.884C290.002 203.951 289.998 204.024 289.971 204.088C289.957 204.12 289.938 204.149 289.914 204.172C289.89 204.195 289.863 204.213 289.833 204.223C289.803 204.234 289.771 204.238 289.74 204.235C289.709 204.231 289.679 204.221 289.651 204.204C289.067 203.798 288.395 203.583 287.71 203.583C287.025 203.583 286.353 203.798 285.769 204.204L285.624 204.22Z" fill="#263238"/>
<path d="M298.273 254.094C298.273 254.094 302.025 260.058 302.752 264.37C307.23 262.255 315.707 256.969 316.841 249.502C315.205 248.913 313.645 248.08 312.203 247.024C312.203 247.024 307.681 251.385 298.273 254.094Z" fill="#F0F0F0"/>
<path d="M295.249 253.813C292.912 256.352 291.379 259.697 290.887 263.329C286.409 261.214 284.65 254.309 285.827 249.733C287.527 248.853 289.307 248.188 291.135 247.75C291.067 249.153 291.446 250.537 292.201 251.65C292.956 252.763 294.038 253.53 295.249 253.813Z" fill="#F0F0F0"/>
<path d="M323.515 250.328L320.752 250.047C320.621 250.036 320.49 250.081 320.386 250.172C320.281 250.263 320.21 250.395 320.185 250.542C312.494 297.41 316.812 347.168 316.812 347.168H319.88C318.206 315.042 319.601 282.806 324.038 251.021C324.049 250.936 324.043 250.849 324.021 250.766C324 250.683 323.963 250.606 323.914 250.541C323.864 250.475 323.803 250.422 323.735 250.386C323.666 250.349 323.591 250.329 323.515 250.328Z" fill="#FC7F07"/>
<path opacity="0.7" d="M323.515 250.328L320.752 250.047C320.621 250.036 320.49 250.081 320.386 250.172C320.281 250.263 320.21 250.395 320.185 250.542C312.494 297.41 316.812 347.168 316.812 347.168H319.88C318.206 315.042 319.601 282.806 324.038 251.021C324.049 250.936 324.043 250.849 324.021 250.766C324 250.683 323.963 250.606 323.914 250.541C323.864 250.475 323.803 250.422 323.735 250.386C323.666 250.349 323.591 250.329 323.515 250.328Z" fill="black"/>
<path d="M319.313 348.275H317.205C316.946 348.275 316.698 348.158 316.516 347.95C316.333 347.743 316.23 347.461 316.23 347.168C316.23 346.873 316.333 346.589 316.515 346.379C316.697 346.169 316.945 346.049 317.205 346.044H319.313C319.574 346.049 319.823 346.168 320.008 346.378C320.193 346.588 320.298 346.871 320.302 347.168C320.298 347.463 320.192 347.744 320.007 347.951C319.822 348.159 319.573 348.275 319.313 348.275Z" fill="#E0E0E0"/>
<path d="M316.972 351.199V348.06C316.972 347.868 317.005 347.677 317.071 347.5C317.136 347.322 317.231 347.161 317.352 347.026C317.472 346.891 317.615 346.784 317.772 346.712C317.929 346.64 318.097 346.604 318.266 346.606C318.605 346.606 318.931 346.759 319.171 347.032C319.411 347.305 319.546 347.674 319.546 348.06V351.199C319.542 351.583 319.406 351.95 319.167 352.222C318.927 352.494 318.604 352.648 318.266 352.652C317.925 352.652 317.598 352.5 317.356 352.228C317.114 351.955 316.976 351.586 316.972 351.199Z" fill="#E0E0E0"/>
<path d="M277.234 250.955L274.501 251.533C274.388 251.557 274.285 251.621 274.206 251.716C274.128 251.812 274.078 251.933 274.065 252.062C268.249 298.946 274.632 347.168 274.632 347.168H277.714C273.163 296.138 277.205 257.679 277.903 251.633C277.92 251.532 277.913 251.428 277.884 251.331C277.855 251.234 277.804 251.148 277.737 251.08C277.67 251.012 277.588 250.964 277.5 250.943C277.412 250.921 277.32 250.925 277.234 250.955Z" fill="#FC7F07"/>
<path opacity="0.7" d="M277.234 250.955L274.501 251.533C274.388 251.557 274.285 251.621 274.206 251.716C274.128 251.812 274.078 251.933 274.065 252.062C268.249 298.946 274.632 347.168 274.632 347.168H277.714C273.163 296.138 277.205 257.679 277.903 251.633C277.92 251.532 277.913 251.428 277.884 251.331C277.855 251.234 277.804 251.148 277.737 251.08C277.67 251.012 277.588 250.964 277.5 250.943C277.412 250.921 277.32 250.925 277.234 250.955Z" fill="black"/>
<path d="M277.176 348.275H275.068C274.805 348.271 274.552 348.155 274.361 347.95C274.17 347.745 274.054 347.466 274.035 347.168C274.031 347.023 274.053 346.879 274.099 346.744C274.144 346.609 274.213 346.486 274.301 346.381C274.389 346.277 274.494 346.193 274.611 346.135C274.728 346.077 274.853 346.047 274.98 346.044H277.089C277.353 346.048 277.605 346.167 277.794 346.376C277.984 346.585 278.095 346.868 278.107 347.168C278.115 347.311 278.096 347.455 278.053 347.59C278.01 347.725 277.942 347.849 277.855 347.953C277.767 348.057 277.662 348.139 277.545 348.195C277.428 348.25 277.303 348.277 277.176 348.275Z" fill="#E0E0E0"/>
<path d="M274.951 351.199L274.82 348.06C274.813 347.871 274.839 347.682 274.897 347.505C274.956 347.327 275.046 347.166 275.162 347.03C275.278 346.893 275.417 346.786 275.571 346.713C275.724 346.64 275.89 346.604 276.056 346.606C276.4 346.61 276.73 346.762 276.978 347.032C277.227 347.302 277.376 347.67 277.394 348.06L277.525 351.199C277.533 351.386 277.507 351.574 277.449 351.75C277.391 351.926 277.303 352.087 277.188 352.223C277.074 352.359 276.937 352.467 276.785 352.541C276.633 352.615 276.469 352.653 276.304 352.652C275.958 352.649 275.627 352.497 275.376 352.228C275.125 351.958 274.973 351.59 274.951 351.199Z" fill="#E0E0E0"/>
<path d="M305.849 289.1C305.638 289.083 305.441 288.974 305.3 288.795C305.159 288.616 305.085 288.382 305.093 288.142L305.5 279.882C305.503 279.762 305.528 279.644 305.573 279.535C305.618 279.426 305.682 279.328 305.76 279.248C305.839 279.168 305.931 279.107 306.032 279.068C306.132 279.029 306.238 279.014 306.343 279.023C306.448 279.029 306.551 279.059 306.646 279.111C306.741 279.162 306.826 279.235 306.896 279.324C306.966 279.413 307.021 279.516 307.055 279.629C307.09 279.742 307.105 279.862 307.099 279.981L306.692 288.241C306.689 288.361 306.664 288.479 306.619 288.588C306.574 288.697 306.51 288.794 306.432 288.875C306.353 288.955 306.261 289.016 306.16 289.055C306.06 289.094 305.954 289.109 305.849 289.1Z" fill="#FC7F07"/>
<path d="M308.335 292.074C308.27 292.074 308.206 292.059 308.147 292.029C308.087 292 308.034 291.956 307.99 291.902C307.946 291.847 307.913 291.783 307.892 291.713C307.871 291.643 307.864 291.569 307.87 291.495L308.364 279.733C308.372 279.583 308.431 279.442 308.529 279.34C308.626 279.238 308.755 279.183 308.888 279.188C308.953 279.192 309.016 279.211 309.075 279.243C309.133 279.275 309.186 279.32 309.229 279.376C309.272 279.431 309.305 279.495 309.327 279.565C309.348 279.635 309.357 279.709 309.353 279.783L308.859 291.545C308.855 291.619 308.838 291.691 308.81 291.758C308.782 291.824 308.742 291.884 308.694 291.933C308.645 291.982 308.588 292.02 308.527 292.044C308.465 292.068 308.4 292.078 308.335 292.074Z" fill="#FC7F07"/>
<path opacity="0.7" d="M305.849 289.1C305.638 289.083 305.441 288.974 305.3 288.795C305.159 288.616 305.085 288.382 305.093 288.142L305.5 279.882C305.503 279.762 305.528 279.644 305.573 279.535C305.618 279.426 305.682 279.328 305.76 279.248C305.839 279.168 305.931 279.107 306.032 279.068C306.132 279.029 306.238 279.014 306.343 279.023C306.448 279.029 306.551 279.059 306.646 279.111C306.741 279.162 306.826 279.235 306.896 279.324C306.966 279.413 307.021 279.516 307.055 279.629C307.09 279.742 307.105 279.862 307.099 279.981L306.692 288.241C306.689 288.361 306.664 288.479 306.619 288.588C306.574 288.697 306.51 288.794 306.432 288.875C306.353 288.955 306.261 289.016 306.16 289.055C306.06 289.094 305.954 289.109 305.849 289.1Z" fill="black"/>
<path opacity="0.7" d="M308.335 292.074C308.27 292.074 308.206 292.059 308.147 292.029C308.087 292 308.034 291.956 307.99 291.902C307.946 291.847 307.913 291.783 307.892 291.713C307.871 291.643 307.864 291.569 307.87 291.495L308.364 279.733C308.372 279.583 308.431 279.442 308.529 279.34C308.626 279.238 308.755 279.183 308.888 279.188C308.953 279.192 309.016 279.211 309.075 279.243C309.133 279.275 309.186 279.32 309.229 279.376C309.272 279.431 309.305 279.495 309.327 279.565C309.348 279.635 309.357 279.709 309.353 279.783L308.859 291.545C308.855 291.619 308.838 291.691 308.81 291.758C308.782 291.824 308.742 291.884 308.694 291.933C308.645 291.982 308.588 292.02 308.527 292.044C308.465 292.068 308.4 292.078 308.335 292.074Z" fill="black"/>
<path d="M296.136 255.845L298.274 254.094L302.81 259.05L296.136 255.845Z" fill="#FC7F07"/>
<path opacity="0.5" d="M296.136 255.845L298.274 254.094L302.81 259.05L296.136 255.845Z" fill="black"/>
<path d="M296.136 255.845L295.249 253.813L289.39 259.05L296.136 255.845Z" fill="#FC7F07"/>
<path opacity="0.5" d="M296.136 255.845L295.249 253.813L289.39 259.05L296.136 255.845Z" fill="black"/>
<path d="M298.172 258.389C300.702 257.316 310.822 248.031 313.701 252.855C316.58 257.679 312.697 259.463 313.962 262.767C315.227 266.071 317.132 271.655 310.778 270.201C303.683 268.549 300.484 262.916 298.434 262.784C298.317 260.834 298.172 258.389 298.172 258.389Z" fill="#FC7F07"/>
<path opacity="0.7" d="M298.172 258.389C300.702 257.316 310.822 248.031 313.701 252.855C316.58 257.679 312.697 259.463 313.962 262.767C315.227 266.071 317.132 271.655 310.778 270.201C303.683 268.549 300.484 262.916 298.434 262.784C298.317 260.834 298.172 258.389 298.172 258.389Z" fill="black"/>
<path d="M294.144 257.712C292.021 256.688 283.268 247.998 281.145 252.459C279.023 256.919 282.294 258.555 281.407 261.594C280.52 264.634 279.241 269.854 284.388 268.533C290.117 267.079 292.472 261.842 294.144 261.726V257.712Z" fill="#FC7F07"/>
<path opacity="0.7" d="M294.144 257.712C292.021 256.688 283.268 247.998 281.145 252.459C279.023 256.919 282.294 258.555 281.407 261.594C280.52 264.634 279.241 269.854 284.388 268.533C290.117 267.079 292.472 261.842 294.144 261.726V257.712Z" fill="black"/>
<path d="M298.622 263.031C299.669 261.033 300.367 255.531 298.128 256.506C295.889 257.481 295.642 257.613 295.002 257.134C294.362 256.655 292.69 255.779 292.399 257.795C292.109 259.81 292.545 263.824 294.202 263.742C295.86 263.659 297.561 265.08 298.622 263.031Z" fill="#FC7F07"/>
<path opacity="0.7" d="M298.622 263.031C299.669 261.033 300.367 255.531 298.128 256.506C295.889 257.481 295.642 257.613 295.002 257.134C294.362 256.655 292.69 255.779 292.399 257.795C292.109 259.81 292.545 263.824 294.202 263.742C295.86 263.659 297.561 265.08 298.622 263.031Z" fill="black"/>
<path d="M220.368 298.549L217.169 325.444C217.141 325.654 217.045 325.845 216.9 325.979C216.755 326.113 216.571 326.182 216.384 326.171L206.206 325.477C206.02 325.457 205.846 325.36 205.717 325.205C205.589 325.05 205.515 324.847 205.508 324.635L205.436 318.572L205.247 304.431L205.159 297.558L220.368 298.549Z" fill="#FC7F07"/>
<path opacity="0.3" d="M220.368 298.549L217.169 325.444C217.141 325.654 217.045 325.845 216.9 325.979C216.755 326.113 216.571 326.182 216.384 326.171L206.206 325.477C206.02 325.457 205.846 325.36 205.717 325.205C205.589 325.05 205.515 324.847 205.508 324.635L205.436 318.572L205.247 304.431L205.159 297.558L220.368 298.549Z" fill="black"/>
<path d="M222.097 297.327L203.534 296.059L203.39 298.78L221.953 300.048L222.097 297.327Z" fill="#FC7F07"/>
<path d="M220.921 295.878L204.854 294.781L204.71 297.502L220.777 298.599L220.921 295.878Z" fill="#FC7F07"/>
<path d="M220.921 295.878L204.854 294.781L204.71 297.502L220.777 298.599L220.921 295.878Z" fill="#F5F5F5"/>
<path d="M222.097 297.327L203.534 296.059L203.39 298.78L221.953 300.048L222.097 297.327Z" fill="#EBEBEB"/>
<path opacity="0.43" d="M211.237 304.794L210.496 318.869L205.334 318.522L205.145 304.381L211.237 304.794Z" fill="#EBEBEB"/>
<path d="M352.304 388.22L297.358 386.816C296.644 386.769 295.947 386.555 295.311 386.186C294.674 385.816 294.113 385.301 293.661 384.671C293.21 384.042 292.879 383.313 292.689 382.53C292.499 381.747 292.455 380.928 292.559 380.125L297.11 325.394C297.131 324.594 297.306 323.808 297.624 323.093C297.942 322.378 298.394 321.751 298.95 321.257C299.505 320.764 300.149 320.415 300.836 320.236C301.524 320.058 302.237 320.053 302.926 320.224L356.724 334.233C358.556 334.712 359.865 337.404 359.632 340.213L356.143 383.165C355.881 385.94 354.18 388.22 352.304 388.22Z" fill="#FC7F07"/>
<path opacity="0.3" d="M352.304 388.22L297.358 386.816C296.644 386.769 295.947 386.555 295.311 386.186C294.674 385.816 294.113 385.301 293.661 384.671C293.21 384.042 292.879 383.313 292.689 382.53C292.499 381.747 292.455 380.928 292.559 380.125L297.11 325.394C297.131 324.594 297.306 323.808 297.624 323.093C297.942 322.378 298.394 321.751 298.95 321.257C299.505 320.764 300.149 320.415 300.836 320.236C301.524 320.058 302.237 320.053 302.926 320.224L356.724 334.233C358.556 334.712 359.865 337.404 359.632 340.213L356.143 383.165C355.881 385.94 354.18 388.22 352.304 388.22Z" fill="white"/>
<path d="M353.322 388.22L298.87 386.816C298.166 386.767 297.479 386.553 296.852 386.187C296.225 385.821 295.671 385.312 295.226 384.691C294.781 384.071 294.453 383.352 294.265 382.58C294.076 381.808 294.03 381.001 294.13 380.208L298.652 325.692C298.664 324.902 298.829 324.126 299.134 323.416C299.439 322.707 299.877 322.082 300.418 321.586C300.959 321.09 301.588 320.735 302.263 320.545C302.937 320.355 303.64 320.336 304.322 320.488L357.626 334.365C359.458 334.827 360.752 337.52 360.534 340.328L357.059 383.099C356.826 385.973 355.125 388.22 353.322 388.22Z" fill="#FC7F07"/>
<path opacity="0.7" d="M353.322 388.22L298.87 386.816C298.166 386.767 297.479 386.553 296.852 386.187C296.225 385.821 295.671 385.312 295.226 384.691C294.781 384.071 294.453 383.352 294.265 382.58C294.076 381.808 294.03 381.001 294.13 380.208L298.652 325.692C298.664 324.902 298.829 324.126 299.134 323.416C299.439 322.707 299.877 322.082 300.418 321.586C300.959 321.09 301.588 320.735 302.263 320.545C302.937 320.355 303.64 320.336 304.322 320.488L357.626 334.365C359.458 334.827 360.752 337.52 360.534 340.328L357.059 383.099C356.826 385.973 355.125 388.22 353.322 388.22Z" fill="white"/>
<path d="M353.525 385.676L299.131 383.66C298.799 383.65 298.472 383.562 298.171 383.399C297.871 383.237 297.603 383.005 297.387 382.719C297.136 382.38 296.947 381.988 296.832 381.565C296.717 381.142 296.678 380.698 296.718 380.257L301.196 326.32C301.229 325.891 301.339 325.475 301.519 325.098C301.699 324.72 301.945 324.388 302.243 324.122C302.511 323.905 302.817 323.753 303.14 323.676C303.462 323.599 303.796 323.599 304.119 323.676L357.495 336.892C358.007 337.138 358.43 337.574 358.695 338.13C358.959 338.686 359.049 339.327 358.949 339.949L355.459 383.049C355.47 383.678 355.28 384.291 354.924 384.773C354.569 385.256 354.072 385.576 353.525 385.676ZM303.552 323.941C303.127 323.939 302.713 324.096 302.374 324.387C302.106 324.622 301.885 324.919 301.724 325.257C301.564 325.596 301.468 325.969 301.443 326.353L296.95 380.29C296.884 381.089 297.099 381.884 297.546 382.504C297.739 382.755 297.976 382.958 298.241 383.1C298.506 383.243 298.795 383.321 299.088 383.33L353.482 385.362C354.296 385.362 355.038 384.338 355.139 383.066L358.629 339.965C358.726 339.413 358.649 338.84 358.413 338.345C358.176 337.85 357.795 337.465 357.335 337.256L303.973 324.04C303.837 323.987 303.695 323.953 303.552 323.941Z" fill="white"/>
<path d="M331.061 367.669H330.509C329.656 367.557 328.832 367.253 328.083 366.777C327.335 366.301 326.677 365.661 326.147 364.894C324.574 362.628 323.848 359.75 324.126 356.882C324.208 355.481 324.541 354.114 325.103 352.865C325.666 351.615 326.446 350.509 327.397 349.613C328.062 349.007 328.831 348.563 329.654 348.31C330.477 348.057 331.337 348 332.181 348.142C333.105 348.327 333.985 348.73 334.764 349.325C335.542 349.919 336.203 350.693 336.703 351.595C336.715 351.609 336.726 351.626 336.733 351.644C336.739 351.663 336.743 351.682 336.743 351.703C336.743 351.723 336.739 351.742 336.733 351.761C336.726 351.779 336.715 351.796 336.703 351.81C336.691 351.824 336.676 351.836 336.66 351.844C336.643 351.852 336.626 351.856 336.608 351.856C336.591 351.856 336.573 351.852 336.557 351.844C336.541 351.836 336.526 351.824 336.514 351.81C336.026 350.947 335.387 350.208 334.637 349.64C333.886 349.071 333.04 348.685 332.152 348.506C331.346 348.372 330.524 348.429 329.738 348.674C328.952 348.918 328.22 349.345 327.586 349.927C326.667 350.793 325.913 351.861 325.368 353.068C324.823 354.275 324.499 355.595 324.416 356.948C324.148 359.738 324.853 362.537 326.379 364.745C327.428 366.228 328.948 367.183 330.61 367.405C331.487 367.478 332.368 367.335 333.191 366.984C334.015 366.633 334.761 366.083 335.38 365.373C335.407 365.343 335.443 365.326 335.481 365.326C335.519 365.326 335.556 365.343 335.583 365.373C335.607 365.405 335.62 365.446 335.62 365.488C335.62 365.531 335.607 365.572 335.583 365.604C334.987 366.27 334.28 366.796 333.504 367.15C332.728 367.504 331.898 367.681 331.061 367.669Z" fill="white"/>
<path d="M335.394 365.571C335.357 365.586 335.316 365.586 335.278 365.571C334.015 363.422 333.454 360.839 333.693 358.269C333.871 355.763 334.842 353.416 336.427 351.661C336.455 351.631 336.494 351.614 336.533 351.616C336.573 351.617 336.61 351.637 336.637 351.67C336.664 351.702 336.679 351.746 336.677 351.791C336.676 351.836 336.659 351.878 336.63 351.909C335.069 353.612 334.12 355.915 333.969 358.368C333.745 360.857 334.29 363.357 335.511 365.439C335.526 365.453 335.538 365.47 335.546 365.49C335.555 365.51 335.559 365.532 335.559 365.555C335.559 365.577 335.555 365.599 335.546 365.619C335.538 365.639 335.526 365.656 335.511 365.67L335.394 365.571Z" fill="white"/>
<path d="M342.882 267.294C344.874 276 346.604 284.689 348.146 293.511C348.916 297.922 349.6 302.333 350.283 306.809C350.618 309.04 350.952 311.286 351.228 313.566L351.635 317.002L351.868 318.836L351.97 319.712L352.057 320.769C352.369 325.858 352.144 330.972 351.388 336C350.736 340.643 349.863 345.243 348.771 349.778C346.66 358.634 343.942 367.29 340.643 375.665L332.501 372.675C333.955 364.15 335.132 355.411 336.078 346.92C336.543 342.674 336.877 338.445 337.052 334.332C337.261 330.531 337.12 326.716 336.63 322.949L336.543 322.355L336.397 321.595L336.121 320.042L335.51 316.92L334.216 310.576L331.512 297.69C329.68 289.15 327.862 280.51 326.161 271.936L342.882 267.294Z" fill="#E4897B"/>
<path d="M340.992 368.578L334.013 369.685L328.4 380.142L325.929 388.121L337.081 387.493L339.756 382.653C339.756 382.653 344.714 375.483 340.992 368.578Z" fill="#E4897B"/>
<path d="M332.181 252.574C343.813 254.92 356.535 304.199 356.535 304.199L329.68 314.623C329.68 314.623 320.723 290.157 322.41 274.975C324.009 259.975 321.145 250.344 332.181 252.574Z" fill="#FC7F07"/>
<path opacity="0.3" d="M332.181 252.574C343.813 254.92 356.535 304.199 356.535 304.199L329.68 314.623C329.68 314.623 320.723 290.157 322.41 274.975C324.009 259.975 321.145 250.344 332.181 252.574Z" fill="black"/>
<path d="M461.005 234.055C456.018 231.875 443.019 226.605 451.002 208.813C458.984 191.021 478.439 215.305 485.054 207.161C484.182 217.486 476.403 240.779 461.005 234.055Z" fill="#263238"/>
<path d="M452.078 234.683C446.174 231.297 444.808 228.075 444.415 226.621C444.366 226.418 444.363 226.204 444.407 225.999C444.45 225.794 444.538 225.605 444.662 225.448C445.767 224.028 449.242 220.146 452.223 223.483C455.204 226.82 458.039 227.167 453.503 234.27C453.347 234.52 453.118 234.699 452.857 234.775C452.596 234.85 452.32 234.818 452.078 234.683Z" fill="#FC7F07"/>
<path opacity="0.3" d="M452.078 234.683C446.174 231.297 444.808 228.075 444.415 226.621C444.366 226.418 444.363 226.204 444.407 225.999C444.45 225.794 444.538 225.605 444.662 225.448C445.767 224.028 449.242 220.146 452.223 223.483C455.204 226.82 458.039 227.167 453.503 234.27C453.347 234.52 453.118 234.699 452.857 234.775C452.596 234.85 452.32 234.818 452.078 234.683Z" fill="black"/>
<path d="M442.874 293.048C435.686 292.461 428.47 292.461 421.282 293.048C426.153 287.778 424.786 272.597 423.419 264.7L432.594 273.604L436.68 277.569C436.349 278.971 436.125 280.402 436.011 281.848C435.647 286.721 436.898 291.413 442.874 293.048Z" fill="#E4897B"/>
<path d="M466.472 311.105C466.719 314.111 467.025 317.415 467.388 320.571C467.752 323.726 468.188 326.964 468.653 330.136C469.572 336.449 470.786 342.702 472.288 348.869C473.059 351.909 473.888 354.916 474.847 357.84L476.112 361.573C476.315 362.156 476.622 362.685 477.014 363.126C477.555 363.591 478.199 363.877 478.875 363.952C479.935 364.081 481.006 364.047 482.059 363.853C484.603 363.349 487.086 362.512 489.46 361.359L492.848 366.893C491.627 368.157 490.314 369.301 488.922 370.312C487.512 371.373 486.012 372.27 484.444 372.989C482.698 373.802 480.856 374.315 478.977 374.508C476.642 374.77 474.288 374.29 472.179 373.124C470.069 371.957 468.285 370.149 467.025 367.9C466.463 366.983 465.977 366.01 465.571 364.993L464.611 362.564C463.346 359.26 462.27 355.956 461.311 352.652C459.416 346.062 457.915 339.334 456.818 332.515C456.222 329.211 455.756 325.741 455.364 322.338C454.971 318.935 454.637 315.582 454.448 311.931L466.472 311.105Z" fill="#E4897B"/>
<path d="M462.677 295.708C467.505 297.096 470.878 319.662 470.878 319.662L457.574 329.937C457.574 329.937 444.822 307.173 448.53 301.16C452.398 294.899 455.625 293.709 462.677 295.708Z" fill="#FC7F07"/>
<path opacity="0.7" d="M462.677 295.708C467.505 297.096 470.878 319.662 470.878 319.662L457.574 329.937C457.574 329.937 444.822 307.173 448.53 301.16C452.398 294.899 455.625 293.709 462.677 295.708Z" fill="black"/>
<path d="M511.75 335.472L492.019 331.887L491.016 336.512L481.187 360.714L500.918 364.299L510.747 340.097L511.75 335.472Z" fill="#263238"/>
<path d="M512.869 335.686L493.139 332.102L492.135 336.711L482.306 360.929L502.037 364.514L511.866 340.295L512.869 335.686Z" fill="#FC7F07"/>
<path d="M492.353 367.223L501.674 358.963L490.042 356.188C490.042 356.188 485.142 362.664 486.901 367.752L492.353 367.223Z" fill="#E4897B"/>
<path d="M504.044 348.093L494.171 346.358L490.013 356.171L501.674 358.947L504.044 348.093Z" fill="#E4897B"/>
<path d="M462.677 295.708C462.677 295.708 468.246 297.938 457.079 376.012H409.519C410.319 354.007 410.333 340.461 401.086 295.328C407.747 293.8 414.497 292.822 421.282 292.404C428.47 291.817 435.686 291.817 442.874 292.404C452.194 293.296 462.677 295.708 462.677 295.708Z" fill="#FC7F07"/>
<path opacity="0.7" d="M462.677 295.708C462.677 295.708 468.246 297.938 457.079 376.012H409.519C410.319 354.007 410.333 340.461 401.086 295.328C407.747 293.8 414.497 292.822 421.282 292.404C428.47 291.817 435.686 291.817 442.874 292.404C452.194 293.296 462.677 295.708 462.677 295.708Z" fill="black"/>
<path d="M436.171 675.536H447.876L449.446 644.726H437.741L436.171 675.536Z" fill="#E4897B"/>
<path d="M382.896 675.536H394.601L399.632 644.726H387.927L382.896 675.536Z" fill="#E4897B"/>
<path d="M395.793 674.016H382.707C382.482 674.013 382.263 674.104 382.092 674.271C381.92 674.438 381.808 674.671 381.777 674.925L380.323 686.753C380.294 687.052 380.321 687.354 380.403 687.64C380.484 687.925 380.617 688.189 380.795 688.412C380.972 688.635 381.188 688.813 381.43 688.934C381.672 689.055 381.934 689.117 382.198 689.115C386.778 689.033 388.989 688.719 394.775 688.719C398.338 688.719 403.499 689.148 408.458 689.148C413.416 689.148 413.634 683.614 411.584 683.119C402.409 680.872 400.955 677.783 397.873 674.859C397.293 674.298 396.554 673.999 395.793 674.016Z" fill="#263238"/>
<path d="M448.675 674.016H435.517C435.29 674.01 435.07 674.099 434.898 674.267C434.726 674.435 434.615 674.669 434.586 674.925L433.132 686.753C433.103 687.052 433.131 687.354 433.212 687.64C433.293 687.925 433.427 688.189 433.604 688.412C433.781 688.635 433.998 688.813 434.24 688.934C434.482 689.055 434.743 689.117 435.008 689.115C439.588 689.033 441.798 688.719 447.585 688.719C451.147 688.719 458.504 689.148 463.419 689.148C468.333 689.148 468.595 683.614 466.56 683.119C457.37 680.872 453.764 677.783 450.667 674.859C450.114 674.314 449.407 674.015 448.675 674.016Z" fill="#263238"/>
<path d="M449.446 644.743L448.632 660.618H436.927L437.741 644.743H449.446Z" fill="#CE6F64"/>
<path d="M387.927 644.743H399.632L397.044 660.618H385.324L387.927 644.743Z" fill="#CE6F64"/>
<path d="M423.332 288.34C421.753 289.163 420.394 290.445 419.392 292.057C420.54 294.188 429.395 298.169 431.794 297.922C431.708 295.756 432.289 293.623 433.437 291.892C433.437 291.892 427.272 291.661 423.332 288.34Z" fill="#FC7F07"/>
<path d="M437.654 288.687C439.254 289.473 440.728 290.556 442.016 291.892C441.522 293.709 437.654 297.013 435.967 297.74C435.628 295.548 434.734 293.516 433.394 291.892C435.01 291.206 436.467 290.11 437.654 288.687Z" fill="#FC7F07"/>
<path d="M457.079 376.045C457.079 376.045 466.312 478.469 465.542 519.091C464.742 561.3 451.133 657.546 451.133 657.546H435.298C435.298 657.546 437.814 563.762 436.404 522.313C434.877 477.131 422.256 376.045 422.256 376.045H457.079Z" fill="#FC7F07"/>
<path d="M444.517 376.045C444.517 376.045 437.727 467.351 430.675 518.811C424.975 560.375 399.719 657.579 399.719 657.579H383.725C383.725 657.579 396.898 563.745 399.719 522.627C406.989 418.551 394.208 400.181 409.446 376.078L444.517 376.045Z" fill="#FC7F07"/>
<path opacity="0.57" d="M433.631 333.696L439.981 333.951C442.943 334.069 445.428 331.438 445.532 328.073L445.747 321.156C445.852 317.791 443.536 314.967 440.574 314.849L434.224 314.594C431.263 314.476 428.778 317.107 428.673 320.472L428.458 327.389C428.354 330.754 430.67 333.577 433.631 333.696Z" fill="#FC7F07"/>
<path d="M436.68 277.536C436.349 278.938 436.125 280.369 436.011 281.815C432.827 281.187 428.654 277.602 428.334 274.182C428.141 272.763 428.2 271.314 428.508 269.92L432.594 273.571L436.68 277.536Z" fill="#CE6F64"/>
<path d="M419.654 246.743C420.366 259.959 420.424 265.509 426.284 272.283C435.095 282.459 449.184 278.577 451.947 265.427C454.448 253.582 452.863 234.039 441.507 228.769C439.008 227.597 436.286 227.17 433.601 227.53C430.915 227.89 428.356 229.025 426.166 230.827C423.975 232.628 422.227 235.036 421.087 237.822C419.947 240.608 419.454 243.679 419.654 246.743Z" fill="#E4897B"/>
<path d="M417.836 252.393C417.784 252.41 417.728 252.41 417.676 252.393C417.632 252.371 417.592 252.34 417.559 252.3C417.526 252.261 417.501 252.214 417.484 252.163C417.468 252.112 417.461 252.058 417.464 252.003C417.467 251.949 417.48 251.896 417.502 251.847C418.956 248.444 430.689 246.115 432.042 245.851C435.846 245.235 439.701 245.124 443.528 245.52C443.982 245.275 444.479 245.148 444.982 245.148C445.485 245.148 445.982 245.275 446.436 245.52C448.92 245.207 451.426 245.207 453.91 245.52C453.958 245.524 454.006 245.539 454.049 245.565C454.092 245.591 454.13 245.627 454.16 245.671C454.19 245.714 454.212 245.765 454.224 245.818C454.236 245.872 454.238 245.928 454.23 245.983C454.215 246.09 454.164 246.186 454.088 246.251C454.012 246.316 453.917 246.344 453.822 246.33C451.363 246.023 448.881 246.023 446.422 246.33C446.359 246.346 446.295 246.346 446.233 246.33C445.865 246.111 445.455 245.997 445.04 245.997C444.625 245.997 444.216 246.111 443.848 246.33C443.809 246.348 443.767 246.358 443.724 246.358C443.682 246.358 443.64 246.348 443.601 246.33C439.798 245.916 435.966 246.027 432.187 246.66C428.683 247.337 419.304 249.634 418.214 252.194C418.178 252.269 418.122 252.329 418.054 252.365C417.986 252.4 417.909 252.41 417.836 252.393Z" fill="#263238"/>
<path d="M437.727 256.638H437.378C436.637 256.634 435.906 256.443 435.237 256.081C434.569 255.718 433.979 255.192 433.51 254.54C431.416 251.517 432.245 246.412 432.274 246.28C432.277 246.252 432.286 246.225 432.299 246.201C432.312 246.178 432.33 246.157 432.35 246.141C432.371 246.126 432.394 246.115 432.419 246.111C432.443 246.106 432.468 246.108 432.492 246.115C432.515 246.119 432.537 246.128 432.557 246.142C432.577 246.156 432.594 246.174 432.608 246.196C432.622 246.217 432.631 246.242 432.636 246.268C432.641 246.293 432.642 246.32 432.638 246.346C432.638 246.346 431.809 251.5 433.801 254.375C434.238 254.981 434.788 255.47 435.412 255.804C436.035 256.138 436.717 256.31 437.407 256.308C438.066 256.383 438.732 256.291 439.356 256.036C439.98 255.782 440.546 255.372 441.013 254.837C443.47 252.013 443.15 246.065 443.15 245.999C443.148 245.973 443.151 245.947 443.158 245.922C443.165 245.897 443.176 245.874 443.191 245.854C443.206 245.834 443.224 245.818 443.244 245.806C443.265 245.794 443.287 245.787 443.31 245.785C443.358 245.784 443.404 245.805 443.439 245.841C443.474 245.878 443.495 245.929 443.499 245.983C443.499 246.231 443.819 252.178 441.26 255.135C440.79 255.642 440.235 256.037 439.628 256.295C439.021 256.553 438.374 256.67 437.727 256.638Z" fill="#263238"/>
<path d="M450.624 256.341C450.065 256.365 449.508 256.252 448.991 256.009C448.475 255.767 448.01 255.401 447.628 254.937C445.418 252.178 446.174 246.429 446.174 246.181C446.176 246.154 446.182 246.127 446.194 246.103C446.205 246.079 446.222 246.059 446.241 246.043C446.261 246.027 446.283 246.016 446.307 246.012C446.331 246.007 446.355 246.008 446.378 246.016C446.401 246.02 446.423 246.029 446.443 246.043C446.463 246.057 446.48 246.075 446.494 246.097C446.507 246.118 446.517 246.143 446.522 246.168C446.527 246.194 446.527 246.221 446.523 246.247C446.523 246.247 445.767 252.046 447.846 254.656C448.234 255.123 448.711 255.481 449.241 255.701C449.771 255.922 450.339 256 450.9 255.928C451.278 255.913 451.648 255.801 451.983 255.601C452.318 255.4 452.609 255.117 452.834 254.771C454.564 252.161 453.343 245.999 453.328 245.933C453.323 245.879 453.334 245.825 453.361 245.779C453.388 245.734 453.427 245.701 453.473 245.685C453.497 245.678 453.522 245.677 453.547 245.681C453.571 245.686 453.595 245.696 453.615 245.712C453.636 245.728 453.654 245.748 453.667 245.772C453.68 245.796 453.688 245.823 453.692 245.851C453.692 246.115 454.957 252.26 453.125 255.019C452.866 255.412 452.533 255.735 452.151 255.963C451.768 256.192 451.346 256.321 450.914 256.341H450.624Z" fill="#263238"/>
<path d="M417.836 253.714C435.764 249.584 443.339 230.999 443.339 230.999C443.339 230.999 441.056 222.739 430.588 223.846C422.256 224.755 405.433 241.324 417.836 253.714Z" fill="#263238"/>
<path d="M410.697 234.254C416.367 232.189 431.053 227.249 421.166 207.739C411.278 188.229 389.817 213.224 381.908 204.138C383.376 215.239 393.249 240.614 410.697 234.254Z" fill="#263238"/>
<path d="M452.063 245.339C445.317 229.314 433.743 228.108 433.743 228.108C433.743 228.108 440.242 221.649 449.155 227.926C455.538 232.436 454.549 240.201 452.063 245.339Z" fill="#263238"/>
<path d="M416.847 254.061C417.088 256.603 418.207 258.932 419.959 260.537C422.285 262.635 424.597 260.537 424.917 257.398C425.208 254.524 424.335 249.981 421.529 249.138C420.915 248.963 420.272 248.965 419.658 249.143C419.045 249.322 418.48 249.671 418.015 250.16C417.551 250.649 417.2 251.261 416.996 251.942C416.793 252.624 416.741 253.352 416.847 254.061Z" fill="#E4897B"/>
<path d="M437.174 252.376C437.793 252.376 438.294 251.503 438.294 250.427C438.294 249.35 437.793 248.477 437.174 248.477C436.556 248.477 436.055 249.35 436.055 250.427C436.055 251.503 436.556 252.376 437.174 252.376Z" fill="#263238"/>
<path d="M448.036 252.376C448.654 252.376 449.155 251.503 449.155 250.427C449.155 249.35 448.654 248.477 448.036 248.477C447.417 248.477 446.916 249.35 446.916 250.427C446.916 251.503 447.417 252.376 448.036 252.376Z" fill="#263238"/>
<path d="M447.832 248.543L450.1 247.8C450.1 247.8 448.864 249.815 447.832 248.543Z" fill="#263238"/>
<path d="M445.098 252.26C445.944 254.709 447.079 257.015 448.472 259.116C447.989 259.506 447.437 259.772 446.854 259.895C446.271 260.018 445.672 259.994 445.098 259.827V252.26Z" fill="#DE5753"/>
<path d="M441.783 264.056C440.514 264.096 439.255 263.79 438.112 263.164C436.968 262.537 435.973 261.608 435.211 260.454C435.172 260.382 435.16 260.295 435.176 260.211C435.192 260.128 435.236 260.056 435.299 260.008C435.36 259.965 435.435 259.951 435.505 259.97C435.576 259.988 435.638 260.038 435.677 260.107C436.398 261.16 437.326 262.007 438.386 262.58C439.446 263.154 440.609 263.438 441.783 263.411C441.855 263.415 441.924 263.45 441.975 263.508C442.026 263.566 442.056 263.643 442.06 263.725C442.062 263.768 442.056 263.81 442.043 263.85C442.03 263.891 442.01 263.927 441.984 263.958C441.958 263.989 441.927 264.014 441.893 264.03C441.858 264.047 441.821 264.056 441.783 264.056Z" fill="#263238"/>
<path d="M434.557 241.473C434.438 241.471 434.323 241.426 434.229 241.344C434.134 241.262 434.066 241.147 434.033 241.018C434 240.888 434.005 240.749 434.047 240.623C434.089 240.497 434.166 240.389 434.266 240.316C435.244 239.67 436.336 239.281 437.464 239.178C438.591 239.075 439.724 239.261 440.78 239.722C440.848 239.753 440.91 239.799 440.963 239.857C441.015 239.915 441.057 239.985 441.085 240.062C441.114 240.139 441.128 240.221 441.128 240.305C441.128 240.388 441.114 240.471 441.085 240.548C441.025 240.698 440.916 240.817 440.78 240.878C440.645 240.94 440.494 240.94 440.358 240.878C439.462 240.504 438.505 240.355 437.553 240.444C436.602 240.532 435.678 240.855 434.848 241.39C434.76 241.449 434.659 241.477 434.557 241.473Z" fill="#263238"/>
<path d="M450.289 240.829C450.181 240.829 450.075 240.795 449.984 240.729C449.41 240.283 448.75 239.999 448.059 239.901C447.369 239.803 446.668 239.895 446.014 240.168C445.948 240.202 445.875 240.222 445.802 240.225C445.729 240.228 445.655 240.214 445.587 240.185C445.518 240.156 445.455 240.112 445.401 240.055C445.347 239.998 445.303 239.93 445.273 239.854C445.242 239.778 445.225 239.696 445.223 239.612C445.22 239.529 445.232 239.446 445.257 239.368C445.283 239.289 445.322 239.218 445.372 239.157C445.422 239.095 445.482 239.046 445.549 239.011C446.373 238.655 447.26 238.529 448.136 238.644C449.011 238.759 449.85 239.112 450.58 239.672C450.703 239.761 450.79 239.9 450.822 240.061C450.855 240.222 450.831 240.391 450.755 240.531C450.706 240.622 450.638 240.698 450.557 240.75C450.475 240.802 450.383 240.829 450.289 240.829Z" fill="#263238"/>
<path d="M399.85 676.329C398.806 676.3 397.768 676.145 396.753 675.866C396.698 675.851 396.648 675.818 396.609 675.771C396.57 675.724 396.545 675.665 396.535 675.602C396.523 675.54 396.527 675.475 396.548 675.416C396.569 675.357 396.605 675.307 396.651 675.272C397.058 674.958 400.635 672.347 401.987 673.058C402.141 673.139 402.274 673.263 402.374 673.42C402.473 673.576 402.535 673.758 402.554 673.95C402.604 674.247 402.588 674.555 402.506 674.843C402.425 675.132 402.282 675.392 402.089 675.602C401.444 676.143 400.649 676.401 399.85 676.329ZM397.567 675.387C399.588 675.85 401.1 675.767 401.697 675.156C401.821 675.013 401.912 674.836 401.96 674.643C402.009 674.449 402.013 674.245 401.973 674.049C401.972 673.966 401.952 673.886 401.913 673.816C401.875 673.746 401.82 673.689 401.755 673.653C400.999 673.289 398.963 674.396 397.524 675.387H397.567Z" fill="#FC7F07"/>
<path d="M396.767 675.866C396.72 675.881 396.67 675.881 396.622 675.866C396.58 675.837 396.546 675.795 396.523 675.746C396.5 675.697 396.489 675.641 396.491 675.585C396.491 675.42 396.491 671.588 397.771 670.299C397.93 670.134 398.12 670.011 398.326 669.94C398.532 669.869 398.75 669.85 398.963 669.886C399.186 669.892 399.401 669.983 399.572 670.145C399.744 670.307 399.862 670.53 399.908 670.778C400.17 672.281 398.032 675.156 396.913 675.866C396.866 675.883 396.815 675.883 396.767 675.866ZM398.759 670.481C398.538 670.478 398.325 670.573 398.163 670.745C397.433 671.967 397.052 673.415 397.073 674.892C398.192 673.884 399.501 671.753 399.341 670.844C399.341 670.712 399.239 670.53 398.89 670.481H398.759Z" fill="#FC7F07"/>
<path d="M453.066 676.329C451.83 676.3 450.599 676.146 449.388 675.866C449.33 675.853 449.276 675.82 449.235 675.772C449.194 675.723 449.167 675.662 449.157 675.595C449.148 675.529 449.156 675.46 449.182 675.4C449.208 675.339 449.249 675.288 449.301 675.255C449.839 674.941 454.506 672.232 455.945 673.124C456.082 673.206 456.198 673.326 456.282 673.474C456.366 673.621 456.415 673.791 456.425 673.966C456.454 674.252 456.422 674.542 456.334 674.812C456.245 675.082 456.102 675.324 455.916 675.519C455.074 676.147 454.07 676.432 453.066 676.329ZM450.347 675.387C452.921 675.883 454.826 675.751 455.524 675.024C455.644 674.901 455.737 674.746 455.792 674.573C455.848 674.401 455.866 674.215 455.844 674.033C455.845 673.964 455.829 673.897 455.798 673.839C455.767 673.78 455.722 673.733 455.669 673.702C454.898 673.206 452.194 674.363 450.347 675.387Z" fill="#FC7F07"/>
<path d="M449.431 675.866C449.38 675.889 449.323 675.889 449.271 675.866C449.23 675.838 449.197 675.796 449.176 675.746C449.155 675.696 449.148 675.64 449.155 675.585C449.155 675.42 449.431 671.835 450.914 670.448C451.124 670.24 451.369 670.085 451.635 669.991C451.9 669.897 452.18 669.867 452.456 669.903C453.27 669.903 453.459 670.497 453.503 670.795C453.721 672.331 450.987 675.172 449.562 675.899L449.431 675.866ZM452.223 670.481C451.876 670.481 451.541 670.621 451.278 670.877C450.429 672.03 449.92 673.458 449.824 674.958C451.278 673.966 453.095 671.736 452.965 670.844C452.965 670.762 452.965 670.547 452.427 670.481H452.223Z" fill="#FC7F07"/>
<path d="M436.898 248.543L439.108 247.8C439.108 247.8 438.003 249.815 436.898 248.543Z" fill="#263238"/>
<path d="M400.388 657.975H382.518L382.678 646.147L403.849 646.411L400.388 657.975Z" fill="#FC7F07"/>
<path opacity="0.7" d="M400.388 657.975H382.518L382.678 646.147L403.849 646.411L400.388 657.975Z" fill="white"/>
<path d="M453.226 657.975H433.859L434.004 646.147L454.491 646.411L453.226 657.975Z" fill="#FC7F07"/>
<path opacity="0.7" d="M453.226 657.975H433.859L434.004 646.147L454.491 646.411L453.226 657.975Z" fill="white"/>
<path d="M408.996 373.352L406.858 378.192C406.684 378.556 407.076 378.936 407.629 378.936H457.501C457.923 378.936 458.286 378.705 458.315 378.391L458.737 373.567C458.737 373.22 458.403 372.939 457.923 372.939H409.766C409.617 372.924 409.467 372.954 409.332 373.027C409.196 373.099 409.08 373.212 408.996 373.352Z" fill="#FC7F07"/>
<path opacity="0.6" d="M408.996 373.352L406.858 378.192C406.684 378.556 407.076 378.936 407.629 378.936H457.501C457.923 378.936 458.286 378.705 458.315 378.391L458.737 373.567C458.737 373.22 458.403 372.939 457.923 372.939H409.766C409.617 372.924 409.467 372.954 409.332 373.027C409.196 373.099 409.08 373.212 408.996 373.352Z" fill="white"/>
<path d="M413.43 378.985H412.136C411.875 378.985 411.685 378.837 411.7 378.655L412.311 372.361C412.311 372.179 412.543 372.03 412.805 372.03H414.099C414.346 372.03 414.55 372.179 414.535 372.361L413.925 378.655C413.91 378.837 413.677 378.985 413.43 378.985Z" fill="#FC7F07"/>
<path d="M455.102 378.985H453.808C453.561 378.985 453.357 378.837 453.372 378.655L453.982 372.361C453.982 372.179 454.23 372.03 454.477 372.03H455.771C456.033 372.03 456.222 372.179 456.207 372.361L455.596 378.655C455.582 378.837 455.364 378.985 455.102 378.985Z" fill="#FC7F07"/>
<path d="M438.25 378.985H436.971C436.709 378.985 436.52 378.837 436.534 378.655L437.13 372.361C437.13 372.179 437.378 372.03 437.639 372.03H438.933C439.181 372.03 439.384 372.179 439.355 372.361L438.759 378.655C438.744 378.837 438.512 378.985 438.25 378.985Z" fill="#FC7F07"/>
<path d="M418.461 370.048H420.57C420.84 370.043 421.099 369.929 421.302 369.726C421.504 369.523 421.637 369.245 421.675 368.941C421.694 368.801 421.686 368.658 421.651 368.522C421.617 368.386 421.556 368.261 421.475 368.154C421.393 368.047 421.292 367.961 421.178 367.903C421.065 367.845 420.941 367.816 420.817 367.818H418.752C418.48 367.823 418.218 367.94 418.016 368.146C417.813 368.352 417.682 368.634 417.647 368.941C417.628 369.076 417.635 369.214 417.667 369.346C417.699 369.477 417.756 369.6 417.833 369.705C417.91 369.809 418.006 369.894 418.114 369.954C418.223 370.013 418.341 370.045 418.461 370.048Z" fill="#E0E0E0"/>
<path d="M420.497 372.956L420.831 369.817C420.857 369.633 420.847 369.445 420.801 369.267C420.756 369.089 420.676 368.924 420.567 368.785C420.459 368.646 420.324 368.536 420.174 368.463C420.023 368.39 419.861 368.356 419.697 368.363C419.34 368.36 418.994 368.507 418.726 368.775C418.458 369.043 418.286 369.414 418.243 369.817L417.909 372.956C417.883 373.139 417.893 373.327 417.939 373.505C417.984 373.684 418.064 373.848 418.173 373.988C418.281 374.127 418.416 374.237 418.566 374.31C418.716 374.382 418.879 374.417 419.043 374.409C419.4 374.412 419.746 374.266 420.014 373.998C420.282 373.729 420.454 373.358 420.497 372.956Z" fill="#E0E0E0"/>
<path d="M448.617 370.048H450.74C451.008 370.043 451.266 369.928 451.466 369.725C451.666 369.522 451.796 369.244 451.831 368.941C451.85 368.801 451.842 368.658 451.807 368.522C451.772 368.386 451.712 368.261 451.631 368.154C451.549 368.047 451.448 367.961 451.334 367.903C451.221 367.845 451.097 367.816 450.973 367.818H448.85C448.579 367.83 448.321 367.948 448.119 368.154C447.918 368.359 447.785 368.637 447.745 368.941C447.728 369.081 447.738 369.224 447.774 369.359C447.811 369.494 447.873 369.619 447.956 369.724C448.039 369.829 448.141 369.913 448.255 369.969C448.369 370.025 448.493 370.052 448.617 370.048Z" fill="#E0E0E0"/>
<path d="M450.638 372.956L450.973 369.817C450.999 369.633 450.988 369.445 450.943 369.267C450.897 369.089 450.817 368.924 450.709 368.785C450.6 368.646 450.466 368.536 450.315 368.463C450.165 368.39 450.002 368.356 449.839 368.363C449.481 368.36 449.136 368.507 448.867 368.775C448.599 369.043 448.427 369.414 448.385 369.817L448.05 372.956C448.027 373.139 448.039 373.325 448.086 373.502C448.132 373.679 448.212 373.843 448.32 373.981C448.428 374.12 448.562 374.23 448.711 374.304C448.86 374.378 449.021 374.414 449.184 374.409C449.541 374.412 449.887 374.266 450.155 373.998C450.423 373.729 450.595 373.358 450.638 372.956Z" fill="#E0E0E0"/>
<path d="M411.845 292.404L414.215 292.14C414.396 292.124 414.575 292.18 414.724 292.297C414.872 292.415 414.98 292.587 415.03 292.784C424.902 330.053 421.137 369.007 421.137 369.007H418.098C420.395 322.652 412.442 298.45 411.191 293.478C411.163 293.358 411.159 293.232 411.178 293.11C411.196 292.988 411.238 292.872 411.301 292.77C411.363 292.668 411.444 292.582 411.538 292.519C411.632 292.456 411.737 292.417 411.845 292.404Z" fill="#FC7F07"/>
<path opacity="0.6" d="M411.845 292.404L414.215 292.14C414.396 292.124 414.575 292.18 414.724 292.297C414.872 292.415 414.98 292.587 415.03 292.784C424.902 330.053 421.137 369.007 421.137 369.007H418.098C420.395 322.652 412.442 298.45 411.191 293.478C411.163 293.358 411.159 293.232 411.178 293.11C411.196 292.988 411.238 292.872 411.301 292.77C411.363 292.668 411.444 292.582 411.538 292.519C411.632 292.456 411.737 292.417 411.845 292.404Z" fill="white"/>
<path d="M448.326 292.255L450.406 292.586C450.566 292.62 450.714 292.71 450.828 292.843C450.943 292.976 451.018 293.146 451.045 293.329C456.949 322.272 451.293 368.925 451.293 368.925H448.239C452.107 318.291 448.152 297.889 447.483 293.23C447.466 293.099 447.477 292.966 447.513 292.84C447.549 292.714 447.611 292.6 447.692 292.505C447.774 292.411 447.874 292.339 447.984 292.296C448.094 292.253 448.211 292.239 448.326 292.255Z" fill="#FC7F07"/>
<path opacity="0.6" d="M448.326 292.255L450.406 292.586C450.566 292.62 450.714 292.71 450.828 292.843C450.943 292.976 451.018 293.146 451.045 293.329C456.949 322.272 451.293 368.925 451.293 368.925H448.239C452.107 318.291 448.152 297.889 447.483 293.23C447.466 293.099 447.477 292.966 447.513 292.84C447.549 292.714 447.611 292.6 447.692 292.505C447.774 292.411 447.874 292.339 447.984 292.296C448.094 292.253 448.211 292.239 448.326 292.255Z" fill="white"/>
<path d="M407.483 311.6C407.483 315.317 407.585 319.282 407.774 323.164C407.963 327.046 408.109 330.879 408.458 334.728C408.807 338.577 409.243 342.261 409.912 345.863C410.232 347.647 410.595 349.398 411.017 351.05C411.24 351.876 411.472 352.669 411.715 353.429L412.049 354.387C412.043 354.403 412.039 354.419 412.039 354.437C412.039 354.454 412.043 354.471 412.049 354.486C412.049 354.635 412.602 355.163 413.692 355.527C414.987 355.918 416.321 356.118 417.661 356.122C420.872 356.148 424.079 355.849 427.243 355.23C430.544 354.651 433.888 353.842 437.203 352.917C440.518 351.992 443.906 350.967 447.163 349.91L449.402 356.138C442.916 359.858 436.128 362.856 429.134 365.092C425.453 366.3 421.671 367.069 417.85 367.388C415.677 367.562 413.494 367.424 411.351 366.975C410.069 366.691 408.823 366.225 407.643 365.588C406.216 364.825 404.939 363.74 403.892 362.399C403.328 361.679 402.84 360.886 402.438 360.037C402.205 359.558 402.147 359.393 402.016 359.095L401.667 358.286C401.246 357.195 400.853 356.122 400.504 354.982C399.829 352.905 399.256 350.787 398.789 348.638C397.885 344.537 397.2 340.377 396.738 336.182C395.788 327.968 395.375 319.685 395.502 311.402L407.483 311.6Z" fill="#E4897B"/>
<path d="M444.589 351.595L448.268 338.825L454.535 350.389C454.535 350.389 450.856 357.84 445.985 357.724L444.589 351.595Z" fill="#E4897B"/>
<path d="M456.44 332.597L461.238 342.542L454.535 350.323L448.268 338.825L456.44 332.597Z" fill="#E4897B"/>
<path d="M401.086 295.361C396.317 297.013 390.603 315.648 390.603 315.648L409.083 330.664C409.083 330.664 415.829 315.102 413.823 308.098C411.744 300.813 406.524 293.478 401.086 295.361Z" fill="#FC7F07"/>
<path opacity="0.7" d="M401.086 295.361C396.317 297.013 390.603 315.648 390.603 315.648L409.083 330.664C409.083 330.664 415.829 315.102 413.823 308.098C411.744 300.813 406.524 293.478 401.086 295.361Z" fill="black"/>
<path d="M419.915 234.171C426.385 231.412 428.203 228.174 428.639 226.77C428.709 226.564 428.733 226.341 428.707 226.121C428.682 225.902 428.609 225.693 428.494 225.515C427.491 223.863 424.263 219.402 420.831 222.491C417.4 225.581 414.463 225.581 418.403 233.56C418.543 233.857 418.775 234.085 419.055 234.198C419.335 234.311 419.641 234.301 419.915 234.171Z" fill="#FC7F07"/>
<path opacity="0.3" d="M419.915 234.171C426.385 231.412 428.203 228.174 428.639 226.77C428.709 226.564 428.733 226.341 428.707 226.121C428.682 225.902 428.609 225.693 428.494 225.515C427.491 223.863 424.263 219.402 420.831 222.491C417.4 225.581 414.463 225.581 418.403 233.56C418.543 233.857 418.775 234.085 419.055 234.198C419.335 234.311 419.641 234.301 419.915 234.171Z" fill="black"/>
</svg>
