<svg width="696" height="727" viewBox="0 0 696 727" fill="none" xmlns="http://www.w3.org/2000/svg">
<path d="M125.725 242.12L246.12 336.368L241.874 516.054" stroke="#263238" stroke-linecap="round" stroke-linejoin="round"/>
<path d="M219.741 343.566L210.317 523.018" stroke="#263238" stroke-linecap="round" stroke-linejoin="round"/>
<path d="M220.994 319.647L220.284 333.257" stroke="#263238" stroke-linecap="round" stroke-linejoin="round"/>
<path d="M174.111 422.649L162.071 530.041" stroke="#263238" stroke-linecap="round" stroke-linejoin="round"/>
<path d="M188.741 291.149L175.197 412.951" stroke="#263238" stroke-linecap="round" stroke-linejoin="round"/>
<path d="M140.884 285.377L94.9066 540.321" stroke="#263238" stroke-linecap="round" stroke-linejoin="round"/>
<path d="M145.715 258.55L141.845 279.968" stroke="#263238" stroke-linecap="round" stroke-linejoin="round"/>
<path d="M115.411 263.101L135.163 275.853" stroke="#263238" stroke-linecap="round" stroke-linejoin="round"/>
<path d="M179.401 304.395L148.693 284.577" stroke="#263238" stroke-linecap="round" stroke-linejoin="round"/>
<path d="M214.396 326.99L192.708 312.988" stroke="#263238" stroke-linecap="round" stroke-linejoin="round"/>
<path d="M242.097 344.86L224.279 333.359" stroke="#263238" stroke-linecap="round" stroke-linejoin="round"/>
<path d="M133.103 284.853L107.838 269.368" stroke="#263238" stroke-linecap="round" stroke-linejoin="round"/>
<path d="M178.176 312.465L147.26 293.519" stroke="#263238" stroke-linecap="round" stroke-linejoin="round"/>
<path d="M214.98 335.016L193.418 321.799" stroke="#263238" stroke-linecap="round" stroke-linejoin="round"/>
<path d="M240.886 350.894L223.472 340.221" stroke="#263238" stroke-linecap="round" stroke-linejoin="round"/>
<path d="M130.918 298.041L112.279 287.936" stroke="#263238" stroke-linecap="round" stroke-linejoin="round"/>
<path d="M176.756 322.89L146.856 306.678" stroke="#263238" stroke-linecap="round" stroke-linejoin="round"/>
<path d="M215.092 343.667L191.971 331.134" stroke="#263238" stroke-linecap="round" stroke-linejoin="round"/>
<path d="M240.774 357.597L222.998 347.957" stroke="#263238" stroke-linecap="round" stroke-linejoin="round"/>
<path d="M128.078 310.211L114.659 303.93" stroke="#263238" stroke-linecap="round" stroke-linejoin="round"/>
<path d="M176.478 332.922L143.432 317.423" stroke="#263238" stroke-linecap="round" stroke-linejoin="round"/>
<path d="M213.714 350.385L190.801 339.64" stroke="#263238" stroke-linecap="round" stroke-linejoin="round"/>
<path d="M240.788 363.078L223.319 354.892" stroke="#263238" stroke-linecap="round" stroke-linejoin="round"/>
<path d="M95.185 498.213L57.5731 498.824" stroke="#263238" stroke-linecap="round" stroke-linejoin="round"/>
<path d="M157.672 497.195L111.917 497.937" stroke="#263238" stroke-linecap="round" stroke-linejoin="round"/>
<path d="M206.796 496.381L172.719 496.948" stroke="#263238" stroke-linecap="round" stroke-linejoin="round"/>
<path d="M238.032 495.872L217.806 496.207" stroke="#263238" stroke-linecap="round" stroke-linejoin="round"/>
<path d="M91.5936 509.612L59.7585 511.154" stroke="#263238" stroke-linecap="round" stroke-linejoin="round"/>
<path d="M156.057 506.486L109.745 508.726" stroke="#263238" stroke-linecap="round" stroke-linejoin="round"/>
<path d="M205.974 504.058L172.942 505.672" stroke="#263238" stroke-linecap="round" stroke-linejoin="round"/>
<path d="M237.35 502.546L217.068 503.535" stroke="#263238" stroke-linecap="round" stroke-linejoin="round"/>
<path d="M88.6147 522.975L63.4891 525.388" stroke="#263238" stroke-linecap="round" stroke-linejoin="round"/>
<path d="M155.124 516.606L106.655 521.259" stroke="#263238" stroke-linecap="round" stroke-linejoin="round"/>
<path d="M205.236 511.808L172.427 514.949" stroke="#263238" stroke-linecap="round" stroke-linejoin="round"/>
<path d="M237.865 508.682L216.734 510.703" stroke="#263238" stroke-linecap="round" stroke-linejoin="round"/>
<path d="M86.2344 535.101L65.6746 537.718" stroke="#263238" stroke-linecap="round" stroke-linejoin="round"/>
<path d="M152.814 526.653L103.662 532.891" stroke="#263238" stroke-linecap="round" stroke-linejoin="round"/>
<path d="M204.443 520.096L170.436 524.414" stroke="#263238" stroke-linecap="round" stroke-linejoin="round"/>
<path d="M237.113 515.952L217.792 518.409" stroke="#263238" stroke-linecap="round" stroke-linejoin="round"/>
<path d="M168.154 343.682L177.216 347.506L174.793 375.001L164.409 372.253L168.154 343.682Z" stroke="#263238" stroke-linecap="round" stroke-linejoin="round"/>
<path d="M204.025 382.765L206.016 359.618L212.809 362.482L211.598 384.772L204.025 382.765Z" stroke="#263238" stroke-linecap="round" stroke-linejoin="round"/>
<path d="M112.126 320.098L125.934 325.914L120.366 360.578L106.279 356.841L112.126 320.098Z" stroke="#263238" stroke-linecap="round" stroke-linejoin="round"/>
<path d="M233.564 371.221L240.231 374.027L240.078 392.318L233.536 390.588L233.564 371.221Z" stroke="#263238" stroke-linecap="round" stroke-linejoin="round"/>
<path d="M570.275 242.12L449.88 336.368L454.126 516.054" stroke="#263238" stroke-linecap="round" stroke-linejoin="round"/>
<path d="M476.259 343.566L485.683 523.018" stroke="#263238" stroke-linecap="round" stroke-linejoin="round"/>
<path d="M475.006 319.647L475.716 333.257" stroke="#263238" stroke-linecap="round" stroke-linejoin="round"/>
<path d="M521.889 422.649L533.929 530.041" stroke="#263238" stroke-linecap="round" stroke-linejoin="round"/>
<path d="M507.259 291.149L520.803 412.951" stroke="#263238" stroke-linecap="round" stroke-linejoin="round"/>
<path d="M555.116 285.377L601.093 540.321" stroke="#263238" stroke-linecap="round" stroke-linejoin="round"/>
<path d="M550.285 258.55L554.155 279.968" stroke="#263238" stroke-linecap="round" stroke-linejoin="round"/>
<path d="M560.837 275.853L580.589 263.101" stroke="#263238" stroke-linecap="round" stroke-linejoin="round"/>
<path d="M516.599 304.395L547.307 284.577" stroke="#263238" stroke-linecap="round" stroke-linejoin="round"/>
<path d="M481.604 326.99L503.291 312.988" stroke="#263238" stroke-linecap="round" stroke-linejoin="round"/>
<path d="M453.903 344.86L471.721 333.359" stroke="#263238" stroke-linecap="round" stroke-linejoin="round"/>
<path d="M562.897 284.853L588.162 269.368" stroke="#263238" stroke-linecap="round" stroke-linejoin="round"/>
<path d="M517.824 312.465L548.74 293.519" stroke="#263238" stroke-linecap="round" stroke-linejoin="round"/>
<path d="M481.02 335.016L502.582 321.799" stroke="#263238" stroke-linecap="round" stroke-linejoin="round"/>
<path d="M455.114 350.894L472.528 340.221" stroke="#263238" stroke-linecap="round" stroke-linejoin="round"/>
<path d="M565.082 298.041L583.721 287.936" stroke="#263238" stroke-linecap="round" stroke-linejoin="round"/>
<path d="M519.244 322.89L549.144 306.678" stroke="#263238" stroke-linecap="round" stroke-linejoin="round"/>
<path d="M480.908 343.667L504.029 331.134" stroke="#263238" stroke-linecap="round" stroke-linejoin="round"/>
<path d="M455.226 357.597L473.002 347.957" stroke="#263238" stroke-linecap="round" stroke-linejoin="round"/>
<path d="M567.922 310.211L581.341 303.93" stroke="#263238" stroke-linecap="round" stroke-linejoin="round"/>
<path d="M519.522 332.922L552.568 317.423" stroke="#263238" stroke-linecap="round" stroke-linejoin="round"/>
<path d="M482.286 350.385L505.199 339.64" stroke="#263238" stroke-linecap="round" stroke-linejoin="round"/>
<path d="M455.212 363.078L472.681 354.892" stroke="#263238" stroke-linecap="round" stroke-linejoin="round"/>
<path d="M600.815 498.213L638.427 498.824" stroke="#263238" stroke-linecap="round" stroke-linejoin="round"/>
<path d="M538.328 497.195L584.083 497.937" stroke="#263238" stroke-linecap="round" stroke-linejoin="round"/>
<path d="M489.204 496.381L523.281 496.948" stroke="#263238" stroke-linecap="round" stroke-linejoin="round"/>
<path d="M457.968 495.872L478.194 496.207" stroke="#263238" stroke-linecap="round" stroke-linejoin="round"/>
<path d="M604.406 509.612L636.241 511.154" stroke="#263238" stroke-linecap="round" stroke-linejoin="round"/>
<path d="M539.943 506.486L586.255 508.726" stroke="#263238" stroke-linecap="round" stroke-linejoin="round"/>
<path d="M490.026 504.058L523.058 505.672" stroke="#263238" stroke-linecap="round" stroke-linejoin="round"/>
<path d="M458.65 502.546L478.932 503.535" stroke="#263238" stroke-linecap="round" stroke-linejoin="round"/>
<path d="M607.385 522.975L632.511 525.388" stroke="#263238" stroke-linecap="round" stroke-linejoin="round"/>
<path d="M540.876 516.606L589.345 521.259" stroke="#263238" stroke-linecap="round" stroke-linejoin="round"/>
<path d="M490.764 511.808L523.573 514.949" stroke="#263238" stroke-linecap="round" stroke-linejoin="round"/>
<path d="M458.135 508.682L479.266 510.703" stroke="#263238" stroke-linecap="round" stroke-linejoin="round"/>
<path d="M609.766 535.101L630.325 537.718" stroke="#263238" stroke-linecap="round" stroke-linejoin="round"/>
<path d="M543.186 526.653L592.338 532.891" stroke="#263238" stroke-linecap="round" stroke-linejoin="round"/>
<path d="M491.557 520.096L525.564 524.414" stroke="#263238" stroke-linecap="round" stroke-linejoin="round"/>
<path d="M458.887 515.952L478.208 518.409" stroke="#263238" stroke-linecap="round" stroke-linejoin="round"/>
<path d="M527.846 343.682L518.784 347.506L521.207 375.001L531.591 372.253L527.846 343.682Z" stroke="#263238" stroke-linecap="round" stroke-linejoin="round"/>
<path d="M491.975 382.765L489.984 359.618L483.191 362.482L484.402 384.772L491.975 382.765Z" stroke="#263238" stroke-linecap="round" stroke-linejoin="round"/>
<path d="M583.874 320.098L570.066 325.914L575.634 360.578L589.721 356.841L583.874 320.098Z" stroke="#263238" stroke-linecap="round" stroke-linejoin="round"/>
<path d="M462.436 371.221L455.769 374.027L455.922 392.318L462.464 390.588L462.436 371.221Z" stroke="#263238" stroke-linecap="round" stroke-linejoin="round"/>
<path d="M130.848 548.158C163.644 541.848 207.77 533.356 241.317 526.842" stroke="#263238" stroke-linecap="round" stroke-linejoin="round"/>
<path d="M85.0651 556.882L119.239 550.324" stroke="#263238" stroke-linecap="round" stroke-linejoin="round"/>
<path d="M585.781 552.52C550.759 543.796 493.659 529.91 454.098 522.233" stroke="#263238" stroke-linecap="round" stroke-linejoin="round"/>
<path d="M622.043 560.401C622.043 560.401 613.872 558.336 600.773 554.992" stroke="#263238" stroke-linecap="round" stroke-linejoin="round"/>
<path d="M219.156 316.158L226.91 224.701L169.281 157.57" stroke="#263238" stroke-linecap="round" stroke-linejoin="round"/>
<path d="M464.065 325.42L459.638 225.864L529.447 157.57" stroke="#263238" stroke-linecap="round" stroke-linejoin="round"/>
<path d="M303.943 581.12C303.943 581.12 282.353 585.148 266.93 591.603C251.507 598.059 308.579 597.245 296.231 599.659C283.884 602.072 246.12 607.714 260.749 616.569C275.379 625.423 387.24 627.052 419.632 618.997C452.024 610.942 362.56 591.603 378.763 584.348C394.966 577.093 411.921 584.348 411.155 574.679C410.389 565.01 379.571 553.305 374.545 553.523C369.52 553.741 401.898 567.438 383.385 571.466C364.871 575.493 328.623 571.422 303.943 581.12Z" fill="#FC7F07"/>
<path opacity="0.6" d="M303.943 581.12C303.943 581.12 282.353 585.148 266.93 591.603C251.507 598.059 308.579 597.245 296.231 599.659C283.884 602.072 246.12 607.714 260.749 616.569C275.379 625.423 387.24 627.052 419.632 618.997C452.024 610.942 362.56 591.603 378.763 584.348C394.966 577.093 411.921 584.348 411.155 574.679C410.389 565.01 379.571 553.305 374.545 553.523C369.52 553.741 401.898 567.438 383.385 571.466C364.871 575.493 328.623 571.422 303.943 581.12Z" fill="white"/>
<path d="M350.018 229.456C350.018 229.456 335.792 234.836 330.948 237.046C326.104 239.256 310.68 241.16 308.258 242.745C305.836 244.33 245.618 313.875 246.816 315.14C248.013 316.405 261.64 317.03 265.58 316.085C269.519 315.14 318.545 265.5 318.545 265.5C318.545 265.5 324.907 265.82 324.907 270.88C324.907 275.94 327.927 330.945 327.927 330.945L390.567 329.68L390.874 262.97C390.874 262.97 391.472 256.34 396.316 256.646C401.16 256.951 452.929 276.26 452.929 276.26L467.712 262.97C467.712 262.97 415.345 241.786 405.35 235.155C395.356 228.525 392.641 221.561 388.646 221.561C384.651 221.561 350.018 229.456 350.018 229.456Z" fill="white"/>
<mask id="mask0_366_206" style="mask-type:luminance" maskUnits="userSpaceOnUse" x="246" y="221" width="222" height="110">
<path d="M350.018 229.456C350.018 229.456 335.792 234.836 330.948 237.046C326.104 239.256 310.68 241.16 308.258 242.745C305.836 244.33 245.618 313.875 246.816 315.14C248.013 316.405 261.64 317.03 265.58 316.085C269.519 315.14 318.545 265.5 318.545 265.5C318.545 265.5 324.907 265.82 324.907 270.88C324.907 275.94 327.927 330.945 327.927 330.945L390.567 329.68L390.874 262.97C390.874 262.97 391.472 256.34 396.316 256.646C401.16 256.951 452.929 276.26 452.929 276.26L467.712 262.97C467.712 262.97 415.345 241.786 405.35 235.155C395.356 228.525 392.641 221.561 388.646 221.561C384.651 221.561 350.018 229.456 350.018 229.456Z" fill="white"/>
</mask>
<g mask="url(#mask0_366_206)">
<g style="mix-blend-mode:multiply">
<path d="M458.72 259.277L455.184 263.261L443.171 258.289L445.955 253.927L443.978 253.098L441.194 257.46C437.018 255.715 432.968 254.014 429.557 252.56L431.938 247.936L430.003 247.093L427.622 251.731C424.031 250.277 421.4 249.056 420.537 248.605C419.382 247.994 417.266 246.86 414.719 245.45L415.526 240.506L413.563 239.561L412.77 244.374C408.775 242.135 404.084 239.459 400.242 237.104L399.81 230.764C399.003 230.037 398.265 229.31 397.569 228.656L398.056 235.766C396.263 234.715 394.542 233.534 392.906 232.233C388.939 228.671 388.368 228.671 388.02 228.671V228.874C387.38 225.123 386.962 222.52 386.948 222.433L384.888 222.796C384.888 223.116 385.333 225.603 385.932 229.107L381.074 230.154V222.782L378.986 223.189V230.604L369.66 232.611V225.137L367.585 225.588V233.062L357.271 235.286L356.923 227.915L354.863 228.38L355.211 235.737L340.316 238.95L339.467 233.541L337.477 234.327L338.27 239.401L332.089 240.724L331.519 236.798L331.004 237.031C330.521 237.246 330.029 237.435 329.528 237.598L330.043 241.175L319.241 243.501L318.698 240.128L316.652 240.535L317.195 243.952L310.402 245.406L309.33 242.28C308.976 242.39 308.636 242.541 308.314 242.731C308.028 242.951 307.762 243.199 307.521 243.472L308.384 245.973L301.312 254.61L299.739 252.022L298.347 253.679L299.962 256.355L286.891 272.349L284.302 269.761L282.91 271.375L285.541 274.006L275.588 286.162L272.359 283.661L270.967 285.289L274.238 287.819L262.476 302.199L258.675 299.888L257.283 301.574L261.097 303.886L251.089 316.114C251.882 316.201 252.745 316.289 253.65 316.347L262.935 304.991L266.025 306.867L257.464 316.521C258.425 316.521 259.385 316.521 260.248 316.521L267.835 307.972L271.036 309.906L265.204 316.158L265.663 316.071C266.819 315.794 271.844 311.331 278.372 305.166L286.014 296.98L286.515 297.372L288.061 295.918L287.476 295.453L296.844 285.406L297.791 286.365L299.322 284.911L298.306 283.894L309.442 272.014L310.527 273.803L312.059 272.262L310.931 270.4L315.232 265.791L316.068 268.219L317.724 266.562L316.958 264.337L320.369 263.668L320.731 265.966C321.543 266.192 322.314 266.556 323.014 267.042L322.429 263.261L333.022 261.182L334.553 271.738L324.962 273.352C324.962 273.992 324.962 274.733 325.06 275.548L334.734 273.817L336.043 282.876L325.728 284.984L325.394 282.876C325.672 288.692 326.048 295.715 326.41 302.679L328.164 313.773L327.023 314.238C327.023 315.024 327.106 315.78 327.148 316.521L328.54 315.954L330.892 330.858H333.008L330.544 315.242C333.857 313.991 337.129 312.93 340.288 312.043L342.989 330.654H345.105L342.321 311.549C344.645 310.938 346.928 310.429 349.197 310.007L352.385 330.509H354.487L351.243 309.673C353.735 309.251 356.185 308.931 358.579 308.684L359.54 329.04L358.148 330.494H361.154L361.683 329.956L360.681 308.626C363.131 308.437 365.525 308.335 367.878 308.306L367.975 330.363H370.063L369.966 308.35C372.959 308.35 375.854 308.539 378.666 308.801L378.624 329.927H380.712L380.782 308.801C384.262 309.208 387.575 309.755 390.721 310.444V308.248C387.561 307.594 384.248 307.041 380.782 306.649V293.315C384.111 293.429 387.433 293.72 390.734 294.188V292.007C387.433 291.549 384.111 291.268 380.782 291.164V275.867L390.762 273.788V271.564L380.782 273.643V265.617L390.762 263.828V263.043C390.82 262.552 390.913 262.066 391.041 261.589L380.782 263.421V251.789L389.746 250.03C390.231 252.275 390.84 254.489 391.57 256.66L393.518 255.889C392.883 254.009 392.353 252.091 391.932 250.146L399.156 254.886L399.504 257.358C400.144 257.532 400.896 257.751 401.634 257.998L401.509 256.18L406.826 259.67C409.304 260.499 412.088 261.458 415.025 262.476L412.241 260.644L412.993 256.122C416.013 257.722 419.326 259.452 422.737 261.226L421.024 264.628L423.029 265.34L424.63 262.214C427.956 263.93 431.395 265.675 434.763 267.391L433.622 269.15L435.668 269.891L436.67 268.35C440.053 270.066 443.366 271.724 446.414 273.25L446.025 273.686L448.168 274.486L448.377 274.239L450.911 275.504L452.901 276.245L454.46 274.791L449.853 272.509L455.755 265.777L461.754 268.248L463.55 266.649L457.272 264.046L460.78 260.062L458.72 259.277ZM367.613 252.08L358.092 253.941L357.702 245.624L367.572 243.269L367.613 252.08ZM367.613 235.301V241.044L357.647 243.4L357.368 237.511L367.613 235.301ZM357.271 280.622L357.828 292.458C354.765 292.894 351.745 293.417 348.835 293.912L347.081 282.672L357.271 280.622ZM357.159 278.426L346.747 280.622L345.355 271.898L356.728 269.862L357.159 278.426ZM356.658 267.609L345.049 269.688L343.379 258.986L356.129 256.486L356.658 267.609ZM344.701 281.015L338.103 282.381L336.794 273.381L343.323 272.203L344.701 281.015ZM356.018 254.29L343.045 256.835L341.875 249.317L355.642 246.046L356.018 254.29ZM355.252 237.903L355.531 243.836L341.611 247.165L340.664 241.059L355.252 237.903ZM317.473 246.06L318.517 252.647L313.924 253.738L313.659 252.923L313.144 253.505L311.056 247.442L317.473 246.06ZM309.121 248.3L311.53 255.308L305.697 261.894L302.412 256.5L309.121 248.3ZM301.006 258.23L304.236 263.552L291.902 277.452L288.269 273.803L301.006 258.23ZM286.905 275.46L290.51 279.168L280.669 290.262L277.147 287.529L286.905 275.46ZM267.348 305.166L264.174 303.246L275.769 289.07L279.235 291.745L267.348 305.166ZM272.442 308.248L269.199 306.285L280.92 293.054L284.219 295.613L272.442 308.248ZM285.694 294.042L282.339 291.454L292 280.549L295.243 283.806L285.694 294.042ZM296.691 282.236L293.42 278.95L305.391 265.457L308.175 269.964L296.691 282.236ZM309.637 268.365L306.853 263.799L312.323 257.62L314.3 263.363L309.637 268.365ZM316.597 262.011L314.592 255.904L318.865 254.886L319.909 261.444L316.597 262.011ZM319.52 245.726L330.308 243.4L331.226 249.739L320.55 252.269L319.52 245.726ZM321.942 261.08L320.898 254.421L331.533 251.891L332.577 259.001L321.942 261.08ZM332.354 242.963L338.548 241.626L339.509 247.762L333.259 249.216L332.354 242.963ZM334.623 258.594L333.579 251.411L339.843 249.957L341.04 257.358L334.623 258.594ZM334.943 260.746L341.332 259.495L342.989 270.168L336.474 271.331L334.943 260.746ZM327.983 299.364L326.076 287.223L336.363 285.086L338.033 296.543C334.414 297.416 331.032 298.375 327.983 299.306V299.364ZM330.155 313.09L328.331 301.458C331.366 300.527 334.734 299.568 338.34 298.637L339.968 309.862C336.753 310.749 333.481 311.796 330.155 313.032V313.09ZM340.066 296.034L338.409 284.664L345.035 283.21L346.775 294.45C344.478 294.944 342.237 295.453 340.066 295.976V296.034ZM342.001 309.382L340.372 298.186C342.543 297.648 344.798 297.139 347.109 296.645L348.849 307.841C346.608 308.248 344.325 308.728 342.001 309.324V309.382ZM350.909 307.477L349.169 296.238C351.953 295.671 354.946 295.162 357.925 294.784L358.482 306.518C356.004 306.702 353.48 307.002 350.909 307.419V307.477ZM358.203 256.195L367.627 254.348V265.748L358.691 267.347L358.203 256.195ZM358.83 269.543L367.683 267.958V276.347L359.192 278.107L358.83 269.543ZM359.331 280.317L367.683 278.572V291.469C365.024 291.672 362.393 291.934 359.79 292.283L359.331 280.317ZM360.556 306.285L359.999 294.435C362.579 294.096 365.177 293.824 367.794 293.621V305.965C365.47 305.936 363.048 306.038 360.528 306.227L360.556 306.285ZM378.652 306.416C375.868 306.154 372.931 305.994 369.938 305.965V293.475C372.875 293.301 375.826 293.214 378.763 293.257L378.652 306.416ZM378.652 291.105C375.715 291.105 372.764 291.105 369.827 291.323L369.757 278.136L378.763 276.26L378.652 291.105ZM378.721 274.05L369.757 275.911V267.594L378.791 265.966L378.721 274.05ZM378.721 263.756L369.66 265.384V253.941L378.805 252.153L378.721 263.756ZM378.721 249.928L369.562 251.731V242.833L378.805 240.637L378.721 249.928ZM378.721 238.398L369.465 240.593V234.908L378.777 232.902L378.721 238.398ZM380.837 232.451L386.085 231.317C386.364 232.916 386.67 234.647 386.99 236.435L380.823 237.889L380.837 232.451ZM380.768 249.521V240.143L387.352 238.572C387.936 241.713 388.577 244.941 389.217 247.863L380.768 249.521ZM389.12 235.926H389.008C388.716 234.341 388.438 232.785 388.187 231.346C388.758 231.753 389.704 232.524 391.305 233.949C393.43 235.614 395.663 237.125 397.987 238.471L398.446 245.028C394.173 240.928 390.164 236.304 390.094 236.304L389.315 237.031L389.12 235.926ZM392.015 247.558L391.5 248.387C390.846 245.479 390.178 242.076 389.551 238.761C391.18 240.608 394.674 244.432 398.126 247.645L398.655 248.067L398.919 252.095L392.015 247.558ZM410.111 259.437L401.119 253.534L400.84 249.521C403.151 250.975 406.645 252.88 410.821 255.119L410.111 259.437ZM411.183 252.88C406.339 250.262 402.58 248.14 400.659 246.86L400.172 239.736C404.07 242.062 408.524 244.577 412.213 246.627L411.183 252.88ZM423.53 259.35C419.785 257.431 416.278 255.584 413.132 253.912L414.148 247.703C416.556 249.027 418.477 250.059 419.41 250.611C420.342 251.164 422.89 252.211 426.439 253.723L423.53 259.35ZM435.738 265.588C432.23 263.814 428.778 262.04 425.395 260.31L428.374 254.494L439.802 259.306L435.738 265.588ZM447.695 271.593L437.631 266.547L441.807 260.135L453.514 264.992L447.695 271.593Z" fill="#FC7F07"/>
</g>
</g>
<path d="M350.018 229.456C350.018 229.456 335.792 234.836 330.948 237.046C326.104 239.256 310.68 241.16 308.258 242.745C305.836 244.33 245.618 313.875 246.816 315.14C248.013 316.405 261.64 317.03 265.58 316.085C269.519 315.14 318.545 265.5 318.545 265.5C318.545 265.5 324.907 265.82 324.907 270.88C324.907 275.94 327.927 330.945 327.927 330.945L390.567 329.68L390.874 262.97C390.874 262.97 391.472 256.34 396.316 256.646C401.16 256.951 452.929 276.26 452.929 276.26L467.712 262.97C467.712 262.97 415.345 241.786 405.35 235.155C395.356 228.525 392.641 221.561 388.646 221.561C384.651 221.561 350.018 229.456 350.018 229.456Z" stroke="#263238" stroke-miterlimit="10"/>
<path d="M360.096 290.8C360.987 299.175 361.224 315.518 361.224 315.518" stroke="#263238" stroke-miterlimit="10"/>
<path d="M359.456 286.438C358.064 276.711 355.475 242.498 355.475 242.498" stroke="#263238" stroke-miterlimit="10"/>
<path d="M394.368 256.631L409.972 251.818" stroke="#263238" stroke-linecap="round" stroke-linejoin="round"/>
<path d="M412.088 251.077L417.057 249.972" stroke="#263238" stroke-linecap="round" stroke-linejoin="round"/>
<path d="M398.265 255.526H418.477" stroke="#263238" stroke-linecap="round" stroke-linejoin="round"/>
<path d="M300.463 259.234L318.545 265.5L308.62 265.515" stroke="#263238" stroke-linecap="round" stroke-linejoin="round"/>
<path d="M305.433 265.893H300.825" stroke="#263238" stroke-linecap="round" stroke-linejoin="round"/>
<path d="M361.057 249.041C361.057 249.972 360.584 250.713 359.999 250.713C359.414 250.713 358.941 249.972 358.941 249.041C358.941 248.111 359.414 247.384 359.999 247.384C360.584 247.384 361.057 248.125 361.057 249.041Z" stroke="#263238" stroke-linecap="round" stroke-linejoin="round"/>
<path d="M362.839 266.998C362.839 267.914 362.352 268.67 361.767 268.67C361.182 268.67 360.709 267.914 360.709 266.998C360.709 266.082 361.182 265.34 361.767 265.34C362.352 265.34 362.839 266.082 362.839 266.998Z" stroke="#263238" stroke-linecap="round" stroke-linejoin="round"/>
<path d="M363.897 289.026C364.481 289.026 364.955 288.277 364.955 287.354C364.955 286.431 364.481 285.682 363.897 285.682C363.312 285.682 362.839 286.431 362.839 287.354C362.839 288.277 363.312 289.026 363.897 289.026Z" stroke="#263238" stroke-linecap="round" stroke-linejoin="round"/>
<path d="M365.316 306.605C365.316 307.521 364.843 308.277 364.259 308.277C363.674 308.277 363.187 307.521 363.187 306.605C363.187 305.689 363.66 304.947 364.259 304.947C364.857 304.947 365.316 305.689 365.316 306.605Z" stroke="#263238" stroke-linecap="round" stroke-linejoin="round"/>
<path d="M343.392 226.475L341.75 227.609C340.173 228.718 338.882 230.217 337.992 231.971L334.303 239.168L344.047 247.98L351.8 236.348L366.291 246.191L371.664 233.512L368.254 228.38C367.621 227.433 366.791 226.648 365.827 226.084C364.863 225.52 363.789 225.192 362.686 225.123C356.742 224.672 344.896 224.12 343.392 226.475Z" fill="white" stroke="#263238" stroke-miterlimit="10"/>
<path d="M341.847 216.82C341.847 216.82 342.46 233.571 344.269 234.268C346.079 234.966 351.229 239.008 354.264 239.008C357.299 239.008 361.53 232.684 361.823 231.738C362.115 230.793 360.612 214.654 360.612 214.654L343.058 216.559L341.847 216.82Z" fill="white"/>
<mask id="mask1_366_206" style="mask-type:luminance" maskUnits="userSpaceOnUse" x="341" y="214" width="21" height="26">
<path d="M341.847 216.82C341.847 216.82 342.46 233.571 344.269 234.268C346.079 234.966 351.229 239.008 354.264 239.008C357.299 239.008 361.53 232.684 361.823 231.738C362.115 230.793 360.612 214.654 360.612 214.654L343.058 216.559L341.847 216.82Z" fill="white"/>
</mask>
<g mask="url(#mask1_366_206)">
<g style="mix-blend-mode:multiply" opacity="0.5">
<path d="M360.612 214.596L343.058 216.501L341.847 216.82C341.847 216.82 342.042 222.244 342.557 226.998C346.136 227.73 349.789 227.979 353.429 227.74C356.216 227.623 358.97 227.069 361.6 226.097C361.224 221.153 360.612 214.596 360.612 214.596Z" fill="#FC7F07"/>
</g>
</g>
<path d="M341.847 216.82C341.847 216.82 342.46 233.571 344.269 234.268C346.079 234.966 351.229 239.008 354.264 239.008C357.299 239.008 361.53 232.684 361.823 231.738C362.115 230.793 360.612 214.654 360.612 214.654L343.058 216.559L341.847 216.82Z" stroke="#263238" stroke-miterlimit="10"/>
<path d="M328.512 189.631C328.512 189.631 325.185 182.361 320.341 185.269C315.497 188.177 322.471 197.599 326.702 199.809C330.934 202.019 332.758 201.699 332.758 201.699L328.512 189.631Z" fill="white" stroke="#263238" stroke-miterlimit="10"/>
<path d="M369.075 187.697C369.075 187.697 370.397 179.758 375.798 181.125C381.199 182.492 376.94 193.6 373.432 196.93C369.924 200.259 368.1 200.463 368.1 200.463L369.075 187.697Z" fill="white" stroke="#263238" stroke-miterlimit="10"/>
<path d="M327.023 188.046C327.023 188.046 327.134 188.424 327.357 189.093C328.651 193.135 333.37 207.777 335.194 212.357C337.309 217.737 345.48 223.742 356.38 221.851C367.279 219.961 370.3 206.672 370.3 201.612C370.3 196.552 367.878 157.352 367.878 157.352C367.878 157.352 354.863 143.437 344.214 139.017C333.565 134.597 328.47 139.642 324.545 147.232C320.619 154.822 318.49 159.242 319.701 164.302C320.912 169.362 327.023 188.046 327.023 188.046Z" fill="white"/>
<mask id="mask2_366_206" style="mask-type:luminance" maskUnits="userSpaceOnUse" x="319" y="137" width="52" height="86">
<path d="M327.023 188.046C327.023 188.046 327.134 188.424 327.357 189.093C328.651 193.135 333.37 207.777 335.194 212.357C337.309 217.737 345.48 223.742 356.38 221.851C367.279 219.961 370.3 206.672 370.3 201.612C370.3 196.552 367.878 157.352 367.878 157.352C367.878 157.352 354.863 143.437 344.214 139.017C333.565 134.597 328.47 139.642 324.545 147.232C320.619 154.822 318.49 159.242 319.701 164.302C320.912 169.362 327.023 188.046 327.023 188.046Z" fill="white"/>
</mask>
<g mask="url(#mask2_366_206)">
<g style="mix-blend-mode:multiply" opacity="0.5">
<path d="M331.296 167.312C335.374 162.586 335.374 153.135 335.374 153.135C341.929 157.793 349.087 161.45 356.63 163.996C360.466 165.143 364.431 165.744 368.42 165.785C368.114 160.827 367.905 157.381 367.905 157.381C367.905 157.381 354.89 143.466 344.241 139.046C333.593 134.626 328.498 139.671 324.572 147.261C320.647 154.851 318.517 159.271 319.728 164.331C320.271 166.628 321.816 171.717 323.347 176.603C324.155 175.672 327.677 171.484 331.296 167.312Z" fill="#FC7F07"/>
</g>
<g style="mix-blend-mode:multiply" opacity="0.5">
<path d="M365.191 209.376C360.667 216.937 355.238 219.772 346.204 216.937C338.047 214.378 332.103 202.629 331.004 200.318C332.591 205.13 334.261 210.059 335.18 212.4C337.296 217.78 345.467 223.785 356.366 221.895C367.265 220.005 370.286 206.715 370.286 201.655C370.286 199.969 370.021 194.385 369.66 187.857" fill="#FC7F07"/>
</g>
</g>
<path d="M327.023 188.046C327.023 188.046 327.134 188.424 327.357 189.093C328.651 193.135 333.37 207.777 335.194 212.357C337.309 217.737 345.48 223.742 356.38 221.851C367.279 219.961 370.3 206.672 370.3 201.612C370.3 196.552 367.878 157.352 367.878 157.352C367.878 157.352 354.863 143.437 344.214 139.017C333.565 134.597 328.47 139.642 324.545 147.232C320.619 154.822 318.49 159.242 319.701 164.302C320.912 169.362 327.023 188.046 327.023 188.046Z" stroke="#263238" stroke-miterlimit="10"/>
<path d="M337.296 171.281C337.449 172.575 336.961 173.709 336.21 173.797C335.458 173.884 334.734 172.91 334.595 171.616C334.456 170.322 334.929 169.187 335.681 169.086C336.432 168.984 337.156 169.987 337.296 171.281Z" fill="#263238"/>
<path d="M358.482 168.751C358.635 170.06 358.148 171.179 357.396 171.267C356.644 171.354 355.934 170.38 355.781 169.086C355.628 167.792 356.129 166.657 356.867 166.57C357.605 166.483 358.343 167.457 358.482 168.751Z" fill="#263238"/>
<path d="M330.043 162.441C330.043 162.441 333.676 157.061 339.119 158.966" stroke="#263238" stroke-width="2" stroke-linecap="round" stroke-linejoin="round"/>
<path d="M349.42 188.046L352.44 184.891L350.325 171.921" stroke="#263238" stroke-linecap="round" stroke-linejoin="round"/>
<path d="M339.119 192.466C339.763 194.111 340.85 195.525 342.249 196.537C343.647 197.549 345.297 198.115 346.998 198.166" stroke="#263238" stroke-linecap="round" stroke-linejoin="round"/>
<path d="M331.867 144.411C331.867 144.411 335.5 151.681 333.078 155.796C330.656 159.911 326.41 160.856 324.601 163.066C322.791 165.276 323.389 176.036 324.601 178.871C325.633 181.859 326.443 184.927 327.023 188.046C327.023 188.046 319.45 174.131 317.279 170.031C315.107 165.93 309.706 151.681 314.495 143.859C319.283 136.036 324.489 141.954 326.299 137.534C328.108 133.114 328.721 124.259 343.852 119.824C358.983 115.389 366.555 124.186 368.671 129.319C370.787 134.451 378.415 138.479 384.109 136.894C389.802 135.309 385.932 133.419 385.932 133.419C385.932 133.419 392.586 133.419 391.069 143.219C389.551 153.019 381.394 159.344 369.882 159.664C358.37 159.984 340.038 156.741 331.867 144.411Z" fill="#263238" stroke="#263238" stroke-miterlimit="10"/>
<path d="M330.572 138.784C330.572 138.784 344.242 126.178 352.176 126.498C360.11 126.818 364.245 141.038 373.78 140.762" stroke="white" stroke-width="0.5" stroke-miterlimit="10"/>
<path d="M327.719 140.776L332.799 145.429C332.799 145.429 340.428 137.461 350.283 141.067C360.138 144.673 369.033 156.334 378.248 155.345C387.463 154.357 390.637 144.382 389.384 138.741" stroke="white" stroke-width="0.5" stroke-miterlimit="10"/>
<path d="M328.345 143.103C328.345 143.103 322.624 141.445 320.09 146.418C317.557 151.39 320.717 158.37 320.717 158.37" stroke="white" stroke-width="0.5" stroke-miterlimit="10"/>
<path d="M332.799 145.4C332.799 145.4 329.305 145.734 329.305 150.707C329.305 155.68 328.345 159.009 324.851 160.667C321.357 162.325 320.09 163.662 321.357 165.654" stroke="white" stroke-width="0.5" stroke-miterlimit="10"/>
<path d="M377.232 165.349C376.104 162.136 371.511 160.987 367.154 160.391C362.797 159.795 351.967 163.153 350.088 163.735C348.806 163.149 347.405 162.901 346.01 163.012C344.614 163.124 343.266 163.592 342.084 164.375C339.523 164.375 328.763 164.258 325.018 165.974C320.995 167.835 316.847 170.176 316.596 173.593C316.416 176.167 318.684 177.592 320.564 178.188C321.441 182.346 324.656 188.758 331.992 188.366C341.263 187.9 345.23 182.361 345.007 177.388C344.868 174.335 344.242 168.78 343.977 166.57C344.754 166.124 345.621 165.878 346.508 165.853C347.394 165.828 348.273 166.024 349.072 166.425C349.392 168.693 350.213 174.102 350.854 177.039C351.925 181.881 357.187 186.097 366.166 183.931C373.307 182.201 374.754 175.134 374.518 170.845C376.313 169.784 378.137 167.777 377.232 165.349ZM331.853 185.487C324.489 185.85 323.208 177.155 323.153 176.763C323.111 176.462 322.98 176.182 322.777 175.962C322.575 175.743 322.312 175.596 322.025 175.541C321.329 175.411 319.311 174.713 319.38 173.782C319.478 172.328 321.761 170.627 326.146 168.606C328.861 167.794 331.673 167.383 334.498 167.384C336.975 167.254 339.453 167.225 341.221 167.239C341.499 169.609 342.07 174.742 342.195 177.533C342.432 180.122 340.386 185.065 331.908 185.487H331.853ZM372.513 168.78C372.259 168.912 372.049 169.122 371.912 169.382C371.775 169.642 371.718 169.939 371.748 170.234C371.748 170.612 372.805 179.336 365.623 181.067C357.354 183.044 354.139 178.857 353.582 176.356C353.025 173.855 352.19 168.533 351.87 166.178C353.554 165.669 355.948 165 358.37 164.418C361.087 163.613 363.899 163.211 366.722 163.226C371.469 163.938 374.1 164.971 374.573 166.294C374.977 167.21 373.223 168.446 372.569 168.78H372.513Z" fill="#263238"/>
<path d="M281.504 490.42L295.73 517.028L298.793 496.672C298.793 496.672 287.058 489.809 281.504 490.42Z" fill="#FC7F07" stroke="#263238" stroke-miterlimit="10"/>
<path d="M366.973 502.299C366.973 502.299 360.319 506.094 358.189 509.569C356.06 513.044 352.747 514.309 355.767 518.729C359.418 524.382 361.98 530.723 363.312 537.398C364.523 544.043 369.367 549.408 374.518 553.523C379.668 557.638 387.825 558.583 388.73 553.843C389.635 549.103 378.443 529.808 377.594 526.333C376.796 523.246 376.588 520.025 376.981 516.853C377.232 513.364 372.123 500.409 366.973 502.299Z" fill="#263238" stroke="#263238" stroke-miterlimit="10"/>
<path d="M388.744 553.974C387.589 554.599 386.324 554.97 385.026 555.065C383.729 555.16 382.426 554.977 381.199 554.527C372.722 551.997 368.783 541.571 364.495 530.187C362.197 524.167 359.095 518.518 355.28 513.407C354.32 514.861 354.027 516.315 355.712 518.802C359.373 524.428 361.955 530.744 363.312 537.398C364.523 544.043 369.367 549.408 374.518 553.523C379.668 557.638 387.756 558.569 388.744 553.974Z" fill="white" stroke="#263238" stroke-miterlimit="10"/>
<path d="M373.627 496.294C373.627 496.294 363.646 502.939 363.34 506.094C363.034 509.249 365.762 519.063 366.973 520.634C368.184 522.204 371.817 515.254 373.028 517.144L376.049 521.899L377.26 513.349L373.627 496.294Z" fill="white" stroke="#263238" stroke-miterlimit="10"/>
<path d="M295.424 494.84L292.097 542.255L311.46 570.084L312.977 506.225L295.424 494.84Z" fill="white"/>
<mask id="mask3_366_206" style="mask-type:luminance" maskUnits="userSpaceOnUse" x="292" y="494" width="21" height="77">
<path d="M295.424 494.84L292.097 542.255L311.46 570.084L312.977 506.225L295.424 494.84Z" fill="white"/>
</mask>
<g mask="url(#mask3_366_206)">
<g style="mix-blend-mode:multiply" opacity="0.5">
<path d="M294.06 514.28L297.944 514.527C303.165 515.034 308.202 516.801 312.657 519.689L312.977 506.225L295.424 494.84L294.06 514.28Z" fill="#FC7F07"/>
</g>
</g>
<path d="M295.424 494.84L292.097 542.255L311.46 570.084L312.977 506.225L295.424 494.84Z" stroke="#263238" stroke-miterlimit="10"/>
<path d="M312.267 536.163C307.19 530.707 300.441 527.285 293.197 526.493L292.097 542.342L311.46 570.157L312.267 536.163Z" fill="white" stroke="#263238" stroke-miterlimit="10"/>
<path d="M311.808 582.734C311.808 582.734 313.325 573.24 311.808 566.609C310.291 559.979 300.004 541.891 290.009 530.884C280.015 519.878 266.109 497.995 257.325 489.155C248.542 480.314 237.656 482.51 237.656 497.37C237.656 512.23 246.426 537.835 259.441 551.43C272.456 565.024 290.928 580.146 295.717 582.734C300.505 585.322 306.017 587.416 311.808 582.734Z" fill="#263238" stroke="#263238" stroke-miterlimit="10"/>
<path d="M312.434 574.33C308.298 568.445 303.403 563.185 297.888 558.699C286.682 549.219 278.205 528.035 273.069 514.76C269.881 506.544 262.545 496.047 257.395 489.227V489.155C248.611 480.3 237.726 482.51 237.726 497.37C237.726 512.23 246.495 537.835 259.511 551.429C272.526 565.024 290.928 580.146 295.716 582.734C300.505 585.322 306.017 587.474 311.766 582.734C312.169 579.952 312.393 577.144 312.434 574.33Z" fill="white" stroke="#263238" stroke-miterlimit="10"/>
<path d="M311.975 581.149C308.05 574.853 300.616 567.147 291.791 558.699C277.565 545.105 265.761 503.695 255.168 491.045C248.709 483.339 242.375 487.134 238.464 491.277C237.913 493.256 237.646 495.309 237.67 497.37C237.67 512.23 246.44 537.835 259.455 551.429C272.47 565.024 290.928 580.146 295.716 582.734C300.505 585.322 306.017 587.474 311.766 582.734C311.808 582.734 311.808 582.138 311.975 581.149Z" fill="white" stroke="#263238" stroke-miterlimit="10"/>
<path d="M321.872 365.725L325.505 325.58C325.505 325.58 352.44 317.67 365.762 319.255C375.319 320.612 384.745 322.83 393.936 325.885C393.936 325.885 399.086 378.374 405.072 403.979C411.058 429.584 413.842 467.534 414.148 481.754C414.454 495.974 405.364 501.034 402.942 504.204C400.52 507.373 385.097 526.653 385.097 526.653C385.097 526.653 375.353 520.328 372.374 510.209C369.395 500.089 371.163 495.988 371.163 495.988L393.936 477.959C393.936 477.959 384.554 420.104 377.232 407.135C369.91 394.165 364.523 389.119 356.658 386.909C348.793 384.699 348.487 385.644 338.493 392.595C332.188 397.054 326.31 402.137 320.94 407.774L313.576 514.716C313.576 514.716 302.44 503.651 295.118 498.591C290.754 495.55 286.207 492.806 281.504 490.376C281.504 490.376 293.726 394.412 299.781 389.076C305.836 383.74 321.872 365.725 321.872 365.725Z" fill="#FC7F07"/>
<mask id="mask4_366_206" style="mask-type:luminance" maskUnits="userSpaceOnUse" x="281" y="319" width="134" height="208">
<path d="M321.872 365.725L325.505 325.58C325.505 325.58 352.44 317.67 365.762 319.255C375.319 320.612 384.745 322.83 393.936 325.885C393.936 325.885 399.086 378.374 405.072 403.979C411.058 429.584 413.842 467.534 414.148 481.754C414.454 495.974 405.364 501.034 402.942 504.204C400.52 507.373 385.097 526.653 385.097 526.653C385.097 526.653 375.353 520.328 372.374 510.209C369.395 500.089 371.163 495.988 371.163 495.988L393.936 477.959C393.936 477.959 384.554 420.104 377.232 407.135C369.91 394.165 364.523 389.119 356.658 386.909C348.793 384.699 348.487 385.644 338.493 392.595C332.188 397.054 326.31 402.137 320.94 407.774L313.576 514.716C313.576 514.716 302.44 503.651 295.118 498.591C290.754 495.55 286.207 492.806 281.504 490.376C281.504 490.376 293.726 394.412 299.781 389.076C305.836 383.74 321.872 365.725 321.872 365.725Z" fill="white"/>
</mask>
<g mask="url(#mask4_366_206)">
<g style="mix-blend-mode:multiply" opacity="0.2">
<path d="M414.162 483.222C410.71 483.222 405.309 483.499 401.856 475.094C396.455 461.936 391.667 423.725 383.259 404.924C374.852 386.124 358.064 369.825 349.072 369.825C340.08 369.825 360.472 383.609 360.472 383.609C360.472 383.609 352.663 379.857 350.867 379.857C349.072 379.857 326.869 392.391 319.673 396.768C312.476 401.144 313.673 404.924 311.321 416.193C309.275 425.789 308.105 490.129 307.799 509.249C311.154 512.346 313.618 514.789 313.618 514.789L321.009 407.803C326.365 402.153 332.229 397.055 338.52 392.58C348.515 385.63 348.807 384.685 356.686 386.895C364.565 389.105 369.994 394.165 377.26 407.12C384.526 420.075 393.964 477.944 393.964 477.944L371.26 495.974C371.26 495.974 369.451 500.074 372.471 510.194C375.492 520.314 385.194 526.639 385.194 526.639C385.194 526.639 400.618 507.344 403.04 504.189C405.462 501.034 413.828 496.308 414.162 483.222Z" fill="#263238"/>
</g>
</g>
<path d="M321.872 365.725L325.505 325.58C325.505 325.58 352.44 317.67 365.762 319.255C375.319 320.612 384.745 322.83 393.936 325.885C393.936 325.885 399.086 378.374 405.072 403.979C411.058 429.584 413.842 467.534 414.148 481.754C414.454 495.974 405.364 501.034 402.942 504.204C400.52 507.373 385.097 526.653 385.097 526.653C385.097 526.653 375.353 520.328 372.374 510.209C369.395 500.089 371.163 495.988 371.163 495.988L393.936 477.959C393.936 477.959 384.554 420.104 377.232 407.135C369.91 394.165 364.523 389.119 356.658 386.909C348.793 384.699 348.487 385.644 338.493 392.595C332.188 397.054 326.31 402.137 320.94 407.774L313.576 514.716C313.576 514.716 302.44 503.651 295.118 498.591C290.754 495.55 286.207 492.806 281.504 490.376C281.504 490.376 293.726 394.412 299.781 389.076C305.836 383.74 321.872 365.725 321.872 365.725Z" stroke="#263238" stroke-miterlimit="10"/>
<path d="M393.936 477.959C393.936 477.959 395.829 491.045 396.72 493.022" stroke="#263238" stroke-miterlimit="10"/>
<path d="M360.709 322.526L358.231 362.497C360.113 362.037 361.832 361.029 363.187 359.589C364.955 357.364 366.736 339.96 366.736 339.96" stroke="#263238" stroke-linecap="round" stroke-linejoin="round"/>
<path d="M339.439 325.478L349.364 324.009L350.074 321.407" stroke="#263238" stroke-linecap="round" stroke-linejoin="round"/>
<path d="M370.634 321.785L369.924 324.009L364.607 323.631" stroke="#263238" stroke-linecap="round" stroke-linejoin="round"/>
<path d="M374.17 321.785L373.822 324.751L381.965 326.597" stroke="#263238" stroke-linecap="round" stroke-linejoin="round"/>
<path d="M326.341 363.616C326.341 363.616 334.136 362.875 342.279 373.227" stroke="#263238" stroke-linecap="round" stroke-linejoin="round"/>
<path d="M339.091 366.946C339.091 366.946 340.859 366.946 345.467 374.347" stroke="#263238" stroke-linecap="round" stroke-linejoin="round"/>
<path d="M321.274 281.945C321.274 281.945 326.104 277.583 327.927 275.62C329.751 273.657 330.349 268.975 332.465 271.825C334.581 274.675 334.581 278.15 333.078 279.095C331.574 280.04 327.927 282.003 327.023 283.21C326.118 284.417 318.852 285.1 321.274 281.945Z" fill="white" stroke="#263238" stroke-miterlimit="10"/>
<path d="M393.031 260.484C393.031 260.484 387.143 257.765 384.86 256.515C382.577 255.264 380.684 250.931 379.445 254.319C378.206 257.707 379.237 261.008 380.949 261.444C382.661 261.88 386.67 262.549 387.909 263.479C389.148 264.41 396.247 262.752 393.031 260.484Z" fill="white" stroke="#263238" stroke-miterlimit="10"/>
<path d="M324.601 238.95L325.812 284.155L331.254 326.205L336.405 325.26L330.043 282.89L329.737 237.685L324.601 238.95Z" fill="#263238" stroke="#263238" stroke-miterlimit="10"/>
<path d="M376.049 223.771C376.049 223.771 385.431 258.55 386.35 262.665C387.268 266.78 389.677 289.535 390.275 291.745C390.874 293.955 386.35 327.15 386.35 327.15L391.486 328.415L395.119 288.27L390.943 262.97L381.561 223.145L376.049 223.771Z" fill="#263238" stroke="#263238" stroke-miterlimit="10"/>
<path d="M335.249 317.626L332.994 315.547L330.6 319.4L331.254 326.205L336.405 325.26L335.249 317.626Z" fill="white" stroke="#263238" stroke-miterlimit="10"/>
<path d="M392.14 321.334L390.846 317.481L387.296 320.04C386.753 324.242 386.35 327.208 386.35 327.208L391.486 328.473L392.14 321.334Z" fill="white" stroke="#263238" stroke-miterlimit="10"/>
<path d="M354.556 240.535C354.556 240.535 337.616 230.357 337.003 233.585C336.391 236.813 337.309 253.185 339.119 252.487C340.929 251.789 354.863 243.661 354.863 243.661C354.863 243.661 372.722 254.072 373.028 249.012C373.334 243.952 372.416 230.677 368.184 230.357C363.952 230.037 354.556 240.535 354.556 240.535Z" fill="#263238" stroke="#263238" stroke-miterlimit="10"/>
<path d="M357.382 241.64L366.221 237.438" stroke="white" stroke-width="0.5" stroke-linecap="round" stroke-linejoin="round"/>
<path d="M357.382 241.64L365.414 243.603" stroke="white" stroke-width="0.5" stroke-linecap="round" stroke-linejoin="round"/>
<path d="M345.592 239.677L352.566 242.193L345.87 244.432" stroke="white" stroke-width="0.5" stroke-linecap="round" stroke-linejoin="round"/>
<path d="M356.853 239.401C356.853 239.401 357.382 243.036 356.853 243.879C356.324 244.723 354.167 244.432 353.359 243.312" stroke="white" stroke-width="0.5" stroke-linecap="round" stroke-linejoin="round"/>
<path d="M421.985 278.848C421.985 278.848 417.238 276.754 420.593 273.323C423.948 269.891 459.29 261.691 465.986 261.822C472.681 261.953 476.426 267.027 477.846 272.858C479.266 278.688 476.008 284.722 468.965 287.688C461.921 290.655 431.784 294.842 427.107 294.057C422.43 293.272 421.985 278.848 421.985 278.848Z" fill="white"/>
<mask id="mask5_366_206" style="mask-type:luminance" maskUnits="userSpaceOnUse" x="419" y="261" width="60" height="34">
<path d="M421.985 278.848C421.985 278.848 417.238 276.754 420.593 273.323C423.948 269.891 459.29 261.691 465.986 261.822C472.681 261.953 476.426 267.027 477.846 272.858C479.266 278.688 476.008 284.722 468.965 287.688C461.921 290.655 431.784 294.842 427.107 294.057C422.43 293.272 421.985 278.848 421.985 278.848Z" fill="white"/>
</mask>
<g mask="url(#mask5_366_206)">
<g style="mix-blend-mode:multiply">
<path d="M477.957 273.134L475.674 273.643C475.257 271.069 474.797 268.481 474.282 265.922H474.547C473.7 264.896 472.687 264.035 471.554 263.378C471.624 263.712 471.721 264.061 471.791 264.41L461.197 267.216C460.724 265.631 460.167 264.119 459.583 262.636L457.481 262.999C458.093 264.453 458.664 266.096 459.179 267.754L445.036 271.52C444.304 269.699 443.458 267.931 442.503 266.227L440.331 266.765C441.33 268.463 442.204 270.237 442.948 272.072L431.812 274.98C430.885 273.217 429.789 271.556 428.541 270.022C427.803 270.255 427.149 270.473 426.453 270.706C427.739 272.173 428.868 273.782 429.822 275.504L428.026 275.969C425.846 276.506 423.792 277.495 421.985 278.877C421.985 279.11 421.985 280.142 422.18 281.567C423.979 279.842 426.168 278.622 428.541 278.019L430.81 277.423C431.61 279.201 432.226 281.063 432.648 282.977L422.653 285.158C422.764 285.876 422.904 286.588 423.071 287.296L433.037 285.129C433.304 287.001 433.411 288.894 433.357 290.785L424.88 292.239C425.119 292.691 425.446 293.086 425.839 293.399C426.232 293.712 426.683 293.936 427.163 294.057L433.218 293.039C433.218 293.344 433.149 293.635 433.121 293.941L435.223 293.752C435.223 293.403 435.292 293.039 435.32 292.69L446.623 290.8V292.356L448.795 292.036C448.795 291.498 448.795 290.96 448.795 290.422L461.476 288.299C461.476 288.793 461.392 289.288 461.351 289.753L463.536 289.346C463.536 288.895 463.62 288.444 463.647 287.994L471.025 286.743C472.386 285.993 473.638 285.043 474.742 283.923L463.731 285.769C463.785 283.367 463.697 280.963 463.466 278.572L473.99 276.274C474.366 278.775 474.672 281.262 474.936 283.69C475.632 282.95 476.24 282.125 476.746 281.233C476.537 279.444 476.301 277.656 476.036 275.838L478.249 275.358C478.231 274.608 478.133 273.862 477.957 273.134ZM432.773 276.929L443.672 274.021C444.375 276.042 444.943 278.111 445.37 280.215L434.624 282.556C434.191 280.619 433.571 278.734 432.773 276.929ZM435.432 290.466C435.462 288.518 435.327 286.572 435.028 284.65L445.774 282.309C446.126 284.368 446.377 286.445 446.526 288.532L435.432 290.466ZM445.76 273.497L459.68 269.775C460.29 272.082 460.755 274.428 461.072 276.798L447.444 279.706C447.01 277.601 446.447 275.527 445.76 273.497ZM448.683 288.241C448.53 286.121 448.275 284.01 447.918 281.916L461.392 279.008C461.603 281.366 461.673 283.736 461.601 286.104L448.683 288.241ZM463.174 276.362C462.856 273.958 462.392 271.578 461.782 269.237L472.264 266.46C472.793 268.99 473.257 271.53 473.656 274.079L463.174 276.362Z" fill="#FC7F07"/>
</g>
</g>
<path d="M421.985 278.848C421.985 278.848 417.238 276.754 420.593 273.323C423.948 269.891 459.29 261.691 465.986 261.822C472.681 261.953 476.426 267.027 477.846 272.858C479.266 278.688 476.008 284.722 468.965 287.688C461.921 290.655 431.784 294.842 427.107 294.057C422.43 293.272 421.985 278.848 421.985 278.848Z" stroke="#263238" stroke-miterlimit="10"/>
<path d="M413.424 278.688L416.82 292.152L425.952 290.8C426.766 288.381 426.811 285.752 426.078 283.305C425.346 280.858 423.876 278.723 421.887 277.22L413.424 278.688Z" fill="white" stroke="#263238" stroke-miterlimit="10"/>
<path d="M413.424 278.688C413.424 278.688 398.265 259.786 396.247 260.44C394.228 261.095 382.424 261.894 380.935 263.436C379.445 264.977 382.452 269.572 382.452 269.572C381.882 271.415 381.495 273.316 381.297 275.242C381.297 277.249 384.081 279.299 384.081 279.299C383.981 281.04 384.079 282.787 384.373 284.504C384.818 285.958 385.584 286.438 385.848 287.412C386.113 288.386 385.668 292.109 388.145 292.952C390.325 293.868 392.708 294.125 395.022 293.693L398.196 292.661C398.196 292.661 405.35 294.29 408.329 293.65C411.308 293.01 416.779 292.196 416.779 292.196L413.424 278.688Z" fill="white"/>
<mask id="mask6_366_206" style="mask-type:luminance" maskUnits="userSpaceOnUse" x="380" y="260" width="37" height="34">
<path d="M413.424 278.688C413.424 278.688 398.265 259.786 396.247 260.44C394.228 261.095 382.424 261.894 380.935 263.436C379.445 264.977 382.452 269.572 382.452 269.572C381.882 271.415 381.495 273.316 381.297 275.242C381.297 277.249 384.081 279.299 384.081 279.299C383.981 281.04 384.079 282.787 384.373 284.504C384.818 285.958 385.584 286.438 385.848 287.412C386.113 288.386 385.668 292.109 388.145 292.952C390.325 293.868 392.708 294.125 395.022 293.693L398.196 292.661C398.196 292.661 405.35 294.29 408.329 293.65C411.308 293.01 416.779 292.196 416.779 292.196L413.424 278.688Z" fill="white"/>
</mask>
<g mask="url(#mask6_366_206)">
<g style="mix-blend-mode:multiply" opacity="0.5">
<path d="M408.315 293.577C409.916 293.243 412.213 292.85 414.009 292.574C411.35 292.879 407.383 293.083 404.975 291.963C401.091 290.16 396.358 287.47 391.611 289.259C389.908 289.899 388.248 290.656 386.642 291.527C386.792 291.844 387.001 292.127 387.257 292.359C387.513 292.591 387.81 292.768 388.131 292.879C390.312 293.795 392.694 294.052 395.008 293.621L398.182 292.588C398.182 292.588 405.336 294.217 408.315 293.577Z" fill="#FC7F07"/>
</g>
</g>
<path d="M413.424 278.688C413.424 278.688 398.265 259.786 396.247 260.44C394.228 261.095 382.424 261.894 380.935 263.436C379.445 264.977 382.452 269.572 382.452 269.572C381.882 271.415 381.495 273.316 381.297 275.242C381.297 277.249 384.081 279.299 384.081 279.299C383.981 281.04 384.079 282.787 384.373 284.504C384.818 285.958 385.584 286.438 385.848 287.412C386.113 288.386 385.668 292.109 388.145 292.952C390.325 293.868 392.708 294.125 395.022 293.693L398.196 292.661C398.196 292.661 405.35 294.29 408.329 293.65C411.308 293.01 416.779 292.196 416.779 292.196L413.424 278.688Z" stroke="#263238" stroke-miterlimit="10"/>
<path d="M382.424 269.572L396.135 268.743" stroke="#263238" stroke-miterlimit="10"/>
<path d="M384.067 279.299L397.68 278.179" stroke="#263238" stroke-miterlimit="10"/>
<path d="M385.835 287.339L397.36 285.566" stroke="#263238" stroke-miterlimit="10"/>
<path d="M298.876 308.495C298.876 308.495 302.802 305.02 298.57 302.81C294.338 300.6 258.313 303.755 251.952 305.965C245.591 308.175 243.475 314.195 243.781 320.2C244.087 326.205 248.931 330.945 256.49 331.585C264.048 332.224 294.074 326.845 298.25 324.62C302.426 322.395 298.876 308.495 298.876 308.495Z" fill="white"/>
<mask id="mask7_366_206" style="mask-type:luminance" maskUnits="userSpaceOnUse" x="243" y="302" width="58" height="30">
<path d="M298.876 308.495C298.876 308.495 302.802 305.02 298.57 302.81C294.338 300.6 258.313 303.755 251.952 305.965C245.591 308.175 243.475 314.195 243.781 320.2C244.087 326.205 248.931 330.945 256.49 331.585C264.048 332.224 294.074 326.845 298.25 324.62C302.426 322.395 298.876 308.495 298.876 308.495Z" fill="white"/>
</mask>
<g mask="url(#mask7_366_206)">
<g style="mix-blend-mode:multiply">
<path d="M299.28 323.704C299.741 322.992 300.045 322.183 300.171 321.334L289.035 323.282C289.035 321.639 289.035 319.996 289.23 318.382L300.366 316.71C300.366 315.983 300.227 315.256 300.143 314.544L289.48 316.143C289.712 314.261 290.098 312.402 290.636 310.589L299.294 309.789C299.127 308.99 299.002 308.495 299.002 308.495C299.311 308.212 299.591 307.895 299.837 307.55L291.485 308.321C292.393 305.968 293.825 303.875 295.661 302.214C294.826 302.214 293.837 302.098 292.765 302.083C291.158 303.971 289.91 306.162 289.091 308.539L277.801 309.571C278.589 307.101 279.581 304.708 280.766 302.418L278.344 302.577C277.218 304.913 276.287 307.345 275.56 309.847L263.283 310.982C263.66 308.571 264.214 306.194 264.939 303.872L262.67 304.148C262.005 306.448 261.498 308.795 261.153 311.171L251.91 312.028C252.617 309.698 253.564 307.456 254.736 305.34C253.838 305.5 252.95 305.719 252.077 305.994C251.098 307.977 250.296 310.051 249.683 312.188L244.992 312.61C244.697 313.341 244.455 314.095 244.268 314.864L249.112 314.413C248.562 316.998 248.379 319.653 248.569 322.294L244.31 322.948C244.528 323.666 244.817 324.358 245.173 325.013L248.82 324.46C249.133 326.335 249.641 328.168 250.337 329.927C251.837 330.654 253.432 331.144 255.07 331.381L261.139 330.334C261.139 330.712 261.251 331.09 261.306 331.468L263.38 331.294L263.088 330.058L274.711 328.037C274.85 328.619 275.031 329.215 275.198 329.796L277.286 329.462C277.105 328.866 276.924 328.27 276.785 327.673L286.794 325.929C286.794 326.525 286.794 327.106 286.877 327.688C287.601 327.543 288.269 327.397 288.993 327.237C288.993 326.685 288.993 326.132 288.993 325.565L299.28 323.704ZM251.228 314.195L260.791 313.323C260.533 315.702 260.412 318.096 260.429 320.491L250.616 321.945C250.409 319.347 250.597 316.731 251.172 314.195H251.228ZM252.509 329.636C251.749 327.876 251.197 326.025 250.866 324.126L260.485 322.672C260.485 324.547 260.694 326.379 260.889 328.168L252.509 329.636ZM262.935 327.819C262.74 326.045 262.601 324.242 262.531 322.381L273.918 320.665C273.935 322.396 274.089 324.122 274.377 325.827L262.935 327.819ZM273.959 318.455L262.503 320.185C262.503 317.824 262.633 315.465 262.893 313.119L274.892 312.028C274.376 314.125 274.045 316.266 273.904 318.426L273.959 318.455ZM286.752 323.66L276.34 325.463C276.049 323.779 275.9 322.071 275.894 320.36L286.919 318.702C286.835 320.345 286.752 322.003 286.752 323.66ZM287.142 316.463L276.006 318.15C276.148 316.013 276.484 313.896 277.008 311.825L288.241 310.793C287.741 312.649 287.387 314.546 287.183 316.463H287.142Z" fill="#FC7F07"/>
</g>
</g>
<path d="M298.876 308.495C298.876 308.495 302.802 305.02 298.57 302.81C294.338 300.6 258.313 303.755 251.952 305.965C245.591 308.175 243.475 314.195 243.781 320.2C244.087 326.205 248.931 330.945 256.49 331.585C264.048 332.224 294.074 326.845 298.25 324.62C302.426 322.395 298.876 308.495 298.876 308.495Z" stroke="#263238" stroke-miterlimit="10"/>
<path d="M307.047 305.66L307.646 319.56L298.57 321.145C297.102 319.092 296.308 316.598 296.308 314.035C296.308 311.472 297.102 308.978 298.57 306.925L307.047 305.66Z" fill="white" stroke="#263238" stroke-miterlimit="10"/>
<path d="M307.047 305.66C307.047 305.66 316.123 282.89 318.183 282.89C320.244 282.89 331.811 279.982 333.621 281C335.43 282.018 333.927 287.325 333.927 287.325C335.019 288.902 335.952 290.593 336.711 292.37C337.309 294.275 335.194 297.125 335.194 297.125C335.784 298.757 336.19 300.455 336.405 302.185C336.405 303.755 335.792 304.395 335.792 305.34C335.792 306.285 337.309 309.702 335.194 311.345C333.375 312.916 331.171 313.924 328.832 314.253H325.505C325.505 314.253 319.144 318.048 316.123 318.353C313.103 318.659 307.646 319.618 307.646 319.618L307.047 305.66Z" fill="white"/>
<mask id="mask8_366_206" style="mask-type:luminance" maskUnits="userSpaceOnUse" x="307" y="280" width="30" height="40">
<path d="M307.047 305.66C307.047 305.66 316.123 282.89 318.183 282.89C320.244 282.89 331.811 279.982 333.621 281C335.43 282.018 333.927 287.325 333.927 287.325C335.019 288.902 335.952 290.593 336.711 292.37C337.309 294.275 335.194 297.125 335.194 297.125C335.784 298.757 336.19 300.455 336.405 302.185C336.405 303.755 335.792 304.395 335.792 305.34C335.792 306.285 337.309 309.702 335.194 311.345C333.375 312.916 331.171 313.924 328.832 314.253H325.505C325.505 314.253 319.144 318.048 316.123 318.353C313.103 318.659 307.646 319.618 307.646 319.618L307.047 305.66Z" fill="white"/>
</mask>
<g mask="url(#mask8_366_206)">
<g style="mix-blend-mode:multiply" opacity="0.5">
<path d="M325.505 314.195H328.832C331.171 313.866 333.375 312.858 335.194 311.287C335.671 310.862 336.023 310.305 336.21 309.68C336.398 309.055 336.412 308.387 336.252 307.754C334.346 309.019 332.231 309.901 330.015 310.356C325.269 311.258 320.104 311.709 315.789 313.948C313.001 315.539 310.355 317.388 307.883 319.473C308.968 319.284 313.451 318.513 316.123 318.237C319.144 317.99 325.505 314.195 325.505 314.195Z" fill="#FC7F07"/>
</g>
</g>
<path d="M307.047 305.66C307.047 305.66 316.123 282.89 318.183 282.89C320.244 282.89 331.811 279.982 333.621 281C335.43 282.018 333.927 287.325 333.927 287.325C335.019 288.902 335.952 290.593 336.711 292.37C337.309 294.275 335.194 297.125 335.194 297.125C335.784 298.757 336.19 300.455 336.405 302.185C336.405 303.755 335.792 304.395 335.792 305.34C335.792 306.285 337.309 309.702 335.194 311.345C333.375 312.916 331.171 313.924 328.832 314.253H325.505C325.505 314.253 319.144 318.048 316.123 318.353C313.103 318.659 307.646 319.618 307.646 319.618L307.047 305.66Z" stroke="#263238" stroke-miterlimit="10"/>
<path d="M333.983 287.325L320.661 290.8" stroke="#263238" stroke-miterlimit="10"/>
<path d="M335.194 297.125L321.872 300.28" stroke="#263238" stroke-miterlimit="10"/>
<path d="M335.792 305.34L324.294 307.23" stroke="#263238" stroke-miterlimit="10"/>
</svg>
